{
    "asset" : {
        "generator" : "Khronos glTF Blender I/O v1.1.46",
        "version" : "2.0"
    },
    "scene" : 0,
    "scenes" : [
        {
            "name" : "Scene",
            "nodes" : [
                0
            ]
        }
    ],
    "nodes" : [
        {
            "mesh" : 0,
            "name" : "Cube.002"
        }
    ],
    "materials" : [
        {
            "doubleSided" : true,
            "emissiveFactor" : [
                0,
                0,
                0
            ],
            "name" : "Pallet",
            "pbrMetallicRoughness" : {
                "baseColorTexture" : {
                    "index" : 0,
                    "texCoord" : 0
                },
                "metallicFactor" : 0,
                "roughnessFactor" : 0.5
            }
        }
    ],
    "meshes" : [
        {
            "name" : "Cube.001",
            "primitives" : [
                {
                    "attributes" : {
                        "POSITION" : 0,
                        "NORMAL" : 1,
                        "TEXCOORD_0" : 2,
                        "TEXCOORD_1" : 3,
                        "TEXCOORD_2" : 4,
                        "TEXCOORD_3" : 5,
                        "TEXCOORD_4" : 6,
                        "TEXCOORD_5" : 7,
                        "TEXCOORD_6" : 8,
                        "TEXCOORD_7" : 9
                    },
                    "indices" : 10,
                    "material" : 0
                }
            ]
        }
    ],
    "textures" : [
        {
            "source" : 0
        }
    ],
    "images" : [
        {
            "bufferView" : 11,
            "mimeType" : "image/png",
            "name" : "ColorPallet_1"
        }
    ],
    "accessors" : [
        {
            "bufferView" : 0,
            "componentType" : 5126,
            "count" : 1373,
            "max" : [
                0.1726967692375183,
                2.8012683391571045,
                0.6887657046318054
            ],
            "min" : [
                -0.8708239793777466,
                -1.6816473007202148,
                -0.6887657046318054
            ],
            "type" : "VEC3"
        },
        {
            "bufferView" : 1,
            "componentType" : 5126,
            "count" : 1373,
            "type" : "VEC3"
        },
        {
            "bufferView" : 2,
            "componentType" : 5126,
            "count" : 1373,
            "type" : "VEC2"
        },
        {
            "bufferView" : 3,
            "componentType" : 5126,
            "count" : 1373,
            "type" : "VEC2"
        },
        {
            "bufferView" : 4,
            "componentType" : 5126,
            "count" : 1373,
            "type" : "VEC2"
        },
        {
            "bufferView" : 5,
            "componentType" : 5126,
            "count" : 1373,
            "type" : "VEC2"
        },
        {
            "bufferView" : 6,
            "componentType" : 5126,
            "count" : 1373,
            "type" : "VEC2"
        },
        {
            "bufferView" : 7,
            "componentType" : 5126,
            "count" : 1373,
            "type" : "VEC2"
        },
        {
            "bufferView" : 8,
            "componentType" : 5126,
            "count" : 1373,
            "type" : "VEC2"
        },
        {
            "bufferView" : 9,
            "componentType" : 5126,
            "count" : 1373,
            "type" : "VEC2"
        },
        {
            "bufferView" : 10,
            "componentType" : 5123,
            "count" : 2481,
            "type" : "SCALAR"
        }
    ],
    "bufferViews" : [
        {
            "buffer" : 0,
            "byteLength" : 16476,
            "byteOffset" : 0
        },
        {
            "buffer" : 0,
            "byteLength" : 16476,
            "byteOffset" : 16476
        },
        {
            "buffer" : 0,
            "byteLength" : 10984,
            "byteOffset" : 32952
        },
        {
            "buffer" : 0,
            "byteLength" : 10984,
            "byteOffset" : 43936
        },
        {
            "buffer" : 0,
            "byteLength" : 10984,
            "byteOffset" : 54920
        },
        {
            "buffer" : 0,
            "byteLength" : 10984,
            "byteOffset" : 65904
        },
        {
            "buffer" : 0,
            "byteLength" : 10984,
            "byteOffset" : 76888
        },
        {
            "buffer" : 0,
            "byteLength" : 10984,
            "byteOffset" : 87872
        },
        {
            "buffer" : 0,
            "byteLength" : 10984,
            "byteOffset" : 98856
        },
        {
            "buffer" : 0,
            "byteLength" : 10984,
            "byteOffset" : 109840
        },
        {
            "buffer" : 0,
            "byteLength" : 4962,
            "byteOffset" : 120824
        },
        {
            "buffer" : 0,
            "byteLength" : 4427,
            "byteOffset" : 125788
        }
    ],
    "buffers" : [
        {
            "byteLength" : 130216,
            "uri" : "data:application/octet-stream;base64,"
        }
    ]
}
