{
    "asset" : {
        "generator" : "Khronos glTF Blender I/O v1.1.46",
        "version" : "2.0"
    },
    "scene" : 0,
    "scenes" : [
        {
            "name" : "Scene",
            "nodes" : [
                0
            ]
        }
    ],
    "nodes" : [
        {
            "mesh" : 0,
            "name" : "Cube.001",
            "scale" : [
                0.3034049868583679,
                0.3034049868583679,
                0.3034049868583679
            ]
        }
    ],
    "materials" : [
        {
            "doubleSided" : true,
            "emissiveFactor" : [
                0,
                0,
                0
            ],
            "name" : "Pallet.002",
            "pbrMetallicRoughness" : {
                "baseColorTexture" : {
                    "index" : 0,
                    "texCoord" : 0
                },
                "metallicFactor" : 0,
                "roughnessFactor" : 0.5
            }
        },
        {
            "doubleSided" : true,
            "emissiveFactor" : [
                0,
                0,
                0
            ],
            "name" : "Pallet_Glow.002",
            "pbrMetallicRoughness" : {
                "baseColorFactor" : [
                    0.800000011920929,
                    0.800000011920929,
                    0.800000011920929,
                    1
                ],
                "metallicFactor" : 0,
                "roughnessFactor" : 0.4000000059604645
            }
        }
    ],
    "meshes" : [
        {
            "name" : "Cube.003",
            "primitives" : [
                {
                    "attributes" : {
                        "POSITION" : 0,
                        "NORMAL" : 1,
                        "TEXCOORD_0" : 2
                    },
                    "indices" : 3,
                    "material" : 0
                },
                {
                    "attributes" : {
                        "POSITION" : 4,
                        "NORMAL" : 5,
                        "TEXCOORD_0" : 6
                    },
                    "indices" : 7,
                    "material" : 1
                }
            ]
        }
    ],
    "textures" : [
        {
            "source" : 0
        }
    ],
    "images" : [
        {
            "bufferView" : 4,
            "mimeType" : "image/png",
            "name" : "ColorPallet_1"
        }
    ],
    "accessors" : [
        {
            "bufferView" : 0,
            "componentType" : 5126,
            "count" : 760,
            "max" : [
                2.1473355293273926,
                7.5408148765563965,
                3.425534725189209
            ],
            "min" : [
                -2.2824785709381104,
                -15.572042465209961,
                -3.425534725189209
            ],
            "type" : "VEC3"
        },
        {
            "bufferView" : 1,
            "componentType" : 5126,
            "count" : 760,
            "type" : "VEC3"
        },
        {
            "bufferView" : 2,
            "componentType" : 5126,
            "count" : 760,
            "type" : "VEC2"
        },
        {
            "bufferView" : 3,
            "componentType" : 5123,
            "count" : 1386,
            "type" : "SCALAR"
        },
        {
            "bufferView" : 5,
            "componentType" : 5126,
            "count" : 32,
            "max" : [
                1.5326848030090332,
                4.721343994140625,
                3.0574746131896973
            ],
            "min" : [
                0.5009028315544128,
                -5.724793910980225,
                -3.0574746131896973
            ],
            "type" : "VEC3"
        },
        {
            "bufferView" : 6,
            "componentType" : 5126,
            "count" : 32,
            "type" : "VEC3"
        },
        {
            "bufferView" : 7,
            "componentType" : 5126,
            "count" : 32,
            "type" : "VEC2"
        },
        {
            "bufferView" : 8,
            "componentType" : 5123,
            "count" : 78,
            "type" : "SCALAR"
        }
    ],
    "bufferViews" : [
        {
            "buffer" : 0,
            "byteLength" : 9120,
            "byteOffset" : 0
        },
        {
            "buffer" : 0,
            "byteLength" : 9120,
            "byteOffset" : 9120
        },
        {
            "buffer" : 0,
            "byteLength" : 6080,
            "byteOffset" : 18240
        },
        {
            "buffer" : 0,
            "byteLength" : 2772,
            "byteOffset" : 24320
        },
        {
            "buffer" : 0,
            "byteLength" : 4427,
            "byteOffset" : 27092
        },
        {
            "buffer" : 0,
            "byteLength" : 384,
            "byteOffset" : 31520
        },
        {
            "buffer" : 0,
            "byteLength" : 384,
            "byteOffset" : 31904
        },
        {
            "buffer" : 0,
            "byteLength" : 256,
            "byteOffset" : 32288
        },
        {
            "buffer" : 0,
            "byteLength" : 156,
            "byteOffset" : 32544
        }
    ],
    "buffers" : [
        {
            "byteLength" : 32700,
            "uri" : "data:application/octet-stream;base64,"
        }
    ]
}
