{
    "asset" : {
        "generator" : "Khronos glTF Blender I/O v1.1.46",
        "version" : "2.0"
    },
    "scene" : 0,
    "scenes" : [
        {
            "name" : "Scene",
            "nodes" : [
                0
            ]
        }
    ],
    "nodes" : [
        {
            "mesh" : 0,
            "name" : "group_0",
            "scale" : [
                0.008992119692265987,
                0.008992119692265987,
                0.008992119692265987
            ]
        }
    ],
    "materials" : [
        {
            "doubleSided" : true,
            "emissiveFactor" : [
                0,
                0,
                0
            ],
            "name" : "Material.001",
            "pbrMetallicRoughness" : {
                "baseColorFactor" : [
                    0.12370999902486801,
                    0.12370999902486801,
                    0.12370999902486801,
                    1
                ],
                "metallicFactor" : 0,
                "roughnessFactor" : 0.4000000059604645
            }
        }
    ],
    "meshes" : [
        {
            "name" : "ID3",
            "primitives" : [
                {
                    "attributes" : {
                        "POSITION" : 0,
                        "NORMAL" : 1,
                        "TEXCOORD_0" : 2
                    },
                    "indices" : 3,
                    "material" : 0
                }
            ]
        }
    ],
    "accessors" : [
        {
            "bufferView" : 0,
            "componentType" : 5126,
            "count" : 621,
            "max" : [
                101.38990783691406,
                101.38990783691406,
                111.20848083496094
            ],
            "min" : [
                -111.20848083496094,
                -111.20848083496094,
                -101.38990783691406
            ],
            "type" : "VEC3"
        },
        {
            "bufferView" : 1,
            "componentType" : 5126,
            "count" : 621,
            "type" : "VEC3"
        },
        {
            "bufferView" : 2,
            "componentType" : 5126,
            "count" : 621,
            "type" : "VEC2"
        },
        {
            "bufferView" : 3,
            "componentType" : 5123,
            "count" : 1068,
            "type" : "SCALAR"
        }
    ],
    "bufferViews" : [
        {
            "buffer" : 0,
            "byteLength" : 7452,
            "byteOffset" : 0
        },
        {
            "buffer" : 0,
            "byteLength" : 7452,
            "byteOffset" : 7452
        },
        {
            "buffer" : 0,
            "byteLength" : 4968,
            "byteOffset" : 14904
        },
        {
            "buffer" : 0,
            "byteLength" : 2136,
            "byteOffset" : 19872
        }
    ],
    "buffers" : [
        {
            "byteLength" : 22008,
            "uri" : "data:application/octet-stream;base64,"
        }
    ]
}
