{
    "asset" : {
        "generator" : "Khronos glTF Blender I/O v1.1.46",
        "version" : "2.0"
    },
    "scene" : 0,
    "scenes" : [
        {
            "name" : "Scene",
            "nodes" : [
                0
            ]
        }
    ],
    "nodes" : [
        {
            "mesh" : 0,
            "name" : "Cylinder.002"
        }
    ],
    "materials" : [
        {
            "doubleSided" : true,
            "emissiveFactor" : [
                0,
                0,
                0
            ],
            "name" : "Pallet.012",
            "pbrMetallicRoughness" : {
                "baseColorTexture" : {
                    "index" : 0,
                    "texCoord" : 0
                },
                "metallicFactor" : 0,
                "roughnessFactor" : 0.5
            }
        }
    ],
    "meshes" : [
        {
            "name" : "Cylinder.003",
            "primitives" : [
                {
                    "attributes" : {
                        "POSITION" : 0,
                        "NORMAL" : 1,
                        "TEXCOORD_0" : 2,
                        "TEXCOORD_1" : 3,
                        "TEXCOORD_2" : 4
                    },
                    "indices" : 5,
                    "material" : 0
                }
            ]
        }
    ],
    "textures" : [
        {
            "source" : 0
        }
    ],
    "images" : [
        {
            "bufferView" : 6,
            "mimeType" : "image/png",
            "name" : "ColorPallet_1"
        }
    ],
    "accessors" : [
        {
            "bufferView" : 0,
            "componentType" : 5126,
            "count" : 3040,
            "max" : [
                8.35251235961914,
                1.7028790712356567,
                1.676030158996582
            ],
            "min" : [
                -2.824725389480591,
                -0.6881199479103088,
                -1.676030158996582
            ],
            "type" : "VEC3"
        },
        {
            "bufferView" : 1,
            "componentType" : 5126,
            "count" : 3040,
            "type" : "VEC3"
        },
        {
            "bufferView" : 2,
            "componentType" : 5126,
            "count" : 3040,
            "type" : "VEC2"
        },
        {
            "bufferView" : 3,
            "componentType" : 5126,
            "count" : 3040,
            "type" : "VEC2"
        },
        {
            "bufferView" : 4,
            "componentType" : 5126,
            "count" : 3040,
            "type" : "VEC2"
        },
        {
            "bufferView" : 5,
            "componentType" : 5123,
            "count" : 4890,
            "type" : "SCALAR"
        }
    ],
    "bufferViews" : [
        {
            "buffer" : 0,
            "byteLength" : 36480,
            "byteOffset" : 0
        },
        {
            "buffer" : 0,
            "byteLength" : 36480,
            "byteOffset" : 36480
        },
        {
            "buffer" : 0,
            "byteLength" : 24320,
            "byteOffset" : 72960
        },
        {
            "buffer" : 0,
            "byteLength" : 24320,
            "byteOffset" : 97280
        },
        {
            "buffer" : 0,
            "byteLength" : 24320,
            "byteOffset" : 121600
        },
        {
            "buffer" : 0,
            "byteLength" : 9780,
            "byteOffset" : 145920
        },
        {
            "buffer" : 0,
            "byteLength" : 4427,
            "byteOffset" : 155700
        }
    ],
    "buffers" : [
        {
            "byteLength" : 160128,
            "uri" : "data:application/octet-stream;base64,"
        }
    ]
}
