{
    "asset" : {
        "generator" : "Khronos glTF Blender I/O v1.1.46",
        "version" : "2.0"
    },
    "scene" : 0,
    "scenes" : [
        {
            "name" : "Scene",
            "nodes" : [
                0
            ]
        }
    ],
    "nodes" : [
        {
            "mesh" : 0,
            "name" : "SpaceshipsYard02",
            "rotation" : [
                0.7071068286895752,
                0,
                0,
                0.7071067094802856
            ]
        }
    ],
    "materials" : [
        {
            "doubleSided" : true,
            "emissiveFactor" : [
                1,
                1,
                1
            ],
            "emissiveTexture" : {
                "index" : 0,
                "texCoord" : 0
            },
            "name" : "SpaceStation(Parts)Silver",
            "normalTexture" : {
                "index" : 1,
                "texCoord" : 0
            },
            "pbrMetallicRoughness" : {
                "baseColorTexture" : {
                    "index" : 2,
                    "texCoord" : 0
                },
                "metallicRoughnessTexture" : {
                    "index" : 3,
                    "texCoord" : 0
                }
            }
        }
    ],
    "meshes" : [
        {
            "name" : "Mesh.095",
            "primitives" : [
                {
                    "attributes" : {
                        "POSITION" : 0,
                        "NORMAL" : 1,
                        "TEXCOORD_0" : 2
                    },
                    "indices" : 3,
                    "material" : 0
                }
            ]
        }
    ],
    "textures" : [
        {
            "source" : 0
        },
        {
            "source" : 1
        },
        {
            "source" : 2
        },
        {
            "source" : 3
        }
    ],
    "images" : [
        {
            "bufferView" : 4,
            "mimeType" : "image/png",
            "name" : "Image_0"
        },
        {
            "bufferView" : 5,
            "mimeType" : "image/png",
            "name" : "SpaceStations_Normal_sm"
        },
        {
            "bufferView" : 6,
            "mimeType" : "image/png",
            "name" : "SpaceStations_Black_sm"
        },
        {
            "bufferView" : 7,
            "mimeType" : "image/png",
            "name" : "SpaceStations_Roughness_sm"
        }
    ],
    "accessors" : [
        {
            "bufferView" : 0,
            "componentType" : 5126,
            "count" : 1842,
            "max" : [
                16.355669021606445,
                24.868846893310547,
                9.179098129272461
            ],
            "min" : [
                -16.355693817138672,
                -24.86895179748535,
                -9.179098129272461
            ],
            "type" : "VEC3"
        },
        {
            "bufferView" : 1,
            "componentType" : 5126,
            "count" : 1842,
            "type" : "VEC3"
        },
        {
            "bufferView" : 2,
            "componentType" : 5126,
            "count" : 1842,
            "type" : "VEC2"
        },
        {
            "bufferView" : 3,
            "componentType" : 5123,
            "count" : 1956,
            "type" : "SCALAR"
        }
    ],
    "bufferViews" : [
        {
            "buffer" : 0,
            "byteLength" : 22104,
            "byteOffset" : 0
        },
        {
            "buffer" : 0,
            "byteLength" : 22104,
            "byteOffset" : 22104
        },
        {
            "buffer" : 0,
            "byteLength" : 14736,
            "byteOffset" : 44208
        },
        {
            "buffer" : 0,
            "byteLength" : 3912,
            "byteOffset" : 58944
        },
        {
            "buffer" : 0,
            "byteLength" : 109558,
            "byteOffset" : 62856
        },
        {
            "buffer" : 0,
            "byteLength" : 766484,
            "byteOffset" : 172416
        },
        {
            "buffer" : 0,
            "byteLength" : 597557,
            "byteOffset" : 938900
        },
        {
            "buffer" : 0,
            "byteLength" : 523897,
            "byteOffset" : 1536460
        }
    ],
    "buffers" : [
        {
            "byteLength" : 2060360,
            "uri" : "data:application/octet-stream;base64,"
        }
    ]
}
