{
    "asset" : {
        "generator" : "Khronos glTF Blender I/O v1.1.46",
        "version" : "2.0"
    },
    "scene" : 0,
    "scenes" : [
        {
            "name" : "Scene",
            "nodes" : [
                0
            ]
        }
    ],
    "nodes" : [
        {
            "mesh" : 0,
            "name" : "Cube.008"
        }
    ],
    "materials" : [
        {
            "doubleSided" : true,
            "emissiveFactor" : [
                0,
                0,
                0
            ],
            "name" : "Pallet.021",
            "pbrMetallicRoughness" : {
                "baseColorTexture" : {
                    "index" : 0,
                    "texCoord" : 0
                },
                "metallicFactor" : 0,
                "roughnessFactor" : 0.5
            }
        }
    ],
    "meshes" : [
        {
            "name" : "Cube.007",
            "primitives" : [
                {
                    "attributes" : {
                        "POSITION" : 0,
                        "NORMAL" : 1,
                        "TEXCOORD_0" : 2,
                        "TEXCOORD_1" : 3,
                        "TEXCOORD_2" : 4,
                        "TEXCOORD_3" : 5,
                        "TEXCOORD_4" : 6
                    },
                    "indices" : 7,
                    "material" : 0
                }
            ]
        }
    ],
    "textures" : [
        {
            "source" : 0
        }
    ],
    "images" : [
        {
            "bufferView" : 8,
            "mimeType" : "image/png",
            "name" : "ColorPallet_1"
        }
    ],
    "accessors" : [
        {
            "bufferView" : 0,
            "componentType" : 5126,
            "count" : 1214,
            "max" : [
                3.000000476837158,
                2.0249996185302734,
                19.740697860717773
            ],
            "min" : [
                0,
                -2.0249996185302734,
                -19.740697860717773
            ],
            "type" : "VEC3"
        },
        {
            "bufferView" : 1,
            "componentType" : 5126,
            "count" : 1214,
            "type" : "VEC3"
        },
        {
            "bufferView" : 2,
            "componentType" : 5126,
            "count" : 1214,
            "type" : "VEC2"
        },
        {
            "bufferView" : 3,
            "componentType" : 5126,
            "count" : 1214,
            "type" : "VEC2"
        },
        {
            "bufferView" : 4,
            "componentType" : 5126,
            "count" : 1214,
            "type" : "VEC2"
        },
        {
            "bufferView" : 5,
            "componentType" : 5126,
            "count" : 1214,
            "type" : "VEC2"
        },
        {
            "bufferView" : 6,
            "componentType" : 5126,
            "count" : 1214,
            "type" : "VEC2"
        },
        {
            "bufferView" : 7,
            "componentType" : 5123,
            "count" : 2112,
            "type" : "SCALAR"
        }
    ],
    "bufferViews" : [
        {
            "buffer" : 0,
            "byteLength" : 14568,
            "byteOffset" : 0
        },
        {
            "buffer" : 0,
            "byteLength" : 14568,
            "byteOffset" : 14568
        },
        {
            "buffer" : 0,
            "byteLength" : 9712,
            "byteOffset" : 29136
        },
        {
            "buffer" : 0,
            "byteLength" : 9712,
            "byteOffset" : 38848
        },
        {
            "buffer" : 0,
            "byteLength" : 9712,
            "byteOffset" : 48560
        },
        {
            "buffer" : 0,
            "byteLength" : 9712,
            "byteOffset" : 58272
        },
        {
            "buffer" : 0,
            "byteLength" : 9712,
            "byteOffset" : 67984
        },
        {
            "buffer" : 0,
            "byteLength" : 4224,
            "byteOffset" : 77696
        },
        {
            "buffer" : 0,
            "byteLength" : 4427,
            "byteOffset" : 81920
        }
    ],
    "buffers" : [
        {
            "byteLength" : 86348,
            "uri" : "data:application/octet-stream;base64,"
        }
    ]
}
