{
    "asset" : {
        "generator" : "Khronos glTF Blender I/O v1.1.46",
        "version" : "2.0"
    },
    "scene" : 0,
    "scenes" : [
        {
            "name" : "Scene",
            "nodes" : [
                0
            ]
        }
    ],
    "nodes" : [
        {
            "mesh" : 0,
            "name" : "Cube.005"
        }
    ],
    "materials" : [
        {
            "doubleSided" : true,
            "emissiveFactor" : [
                0,
                0,
                0
            ],
            "name" : "Base",
            "pbrMetallicRoughness" : {
                "baseColorTexture" : {
                    "index" : 0,
                    "texCoord" : 0
                },
                "metallicFactor" : 0,
                "roughnessFactor" : 0.4000000059604645
            }
        }
    ],
    "meshes" : [
        {
            "name" : "Cube.004",
            "primitives" : [
                {
                    "attributes" : {
                        "POSITION" : 0,
                        "NORMAL" : 1,
                        "TEXCOORD_0" : 2,
                        "TEXCOORD_1" : 3,
                        "TEXCOORD_2" : 4
                    },
                    "indices" : 5,
                    "material" : 0
                }
            ]
        }
    ],
    "textures" : [
        {
            "source" : 0
        }
    ],
    "images" : [
        {
            "bufferView" : 6,
            "mimeType" : "image/png",
            "name" : "ColorPallet_1"
        }
    ],
    "accessors" : [
        {
            "bufferView" : 0,
            "componentType" : 5126,
            "count" : 6210,
            "max" : [
                3.000000476837158,
                11.957552909851074,
                8.747994422912598
            ],
            "min" : [
                0,
                -11.957685470581055,
                -8.747994422912598
            ],
            "type" : "VEC3"
        },
        {
            "bufferView" : 1,
            "componentType" : 5126,
            "count" : 6210,
            "type" : "VEC3"
        },
        {
            "bufferView" : 2,
            "componentType" : 5126,
            "count" : 6210,
            "type" : "VEC2"
        },
        {
            "bufferView" : 3,
            "componentType" : 5126,
            "count" : 6210,
            "type" : "VEC2"
        },
        {
            "bufferView" : 4,
            "componentType" : 5126,
            "count" : 6210,
            "type" : "VEC2"
        },
        {
            "bufferView" : 5,
            "componentType" : 5123,
            "count" : 10332,
            "type" : "SCALAR"
        }
    ],
    "bufferViews" : [
        {
            "buffer" : 0,
            "byteLength" : 74520,
            "byteOffset" : 0
        },
        {
            "buffer" : 0,
            "byteLength" : 74520,
            "byteOffset" : 74520
        },
        {
            "buffer" : 0,
            "byteLength" : 49680,
            "byteOffset" : 149040
        },
        {
            "buffer" : 0,
            "byteLength" : 49680,
            "byteOffset" : 198720
        },
        {
            "buffer" : 0,
            "byteLength" : 49680,
            "byteOffset" : 248400
        },
        {
            "buffer" : 0,
            "byteLength" : 20664,
            "byteOffset" : 298080
        },
        {
            "buffer" : 0,
            "byteLength" : 4427,
            "byteOffset" : 318744
        }
    ],
    "buffers" : [
        {
            "byteLength" : 323172,
            "uri" : "data:application/octet-stream;base64,"
        }
    ]
}
