{
    "asset" : {
        "generator" : "Khronos glTF Blender I/O v1.1.46",
        "version" : "2.0"
    },
    "scene" : 0,
    "scenes" : [
        {
            "name" : "Scene",
            "nodes" : [
                0
            ]
        }
    ],
    "nodes" : [
        {
            "mesh" : 0,
            "name" : "SpaceStation16",
            "rotation" : [
                0.7071068286895752,
                0,
                0,
                0.7071067094802856
            ]
        }
    ],
    "materials" : [
        {
            "doubleSided" : true,
            "emissiveFactor" : [
                1,
                1,
                1
            ],
            "emissiveTexture" : {
                "index" : 0,
                "texCoord" : 0
            },
            "name" : "SpaceStationRed.001",
            "normalTexture" : {
                "index" : 1,
                "texCoord" : 0
            },
            "pbrMetallicRoughness" : {
                "baseColorTexture" : {
                    "index" : 2,
                    "texCoord" : 0
                },
                "metallicRoughnessTexture" : {
                    "index" : 3,
                    "texCoord" : 0
                }
            }
        }
    ],
    "meshes" : [
        {
            "name" : "Mesh.080",
            "primitives" : [
                {
                    "attributes" : {
                        "POSITION" : 0,
                        "NORMAL" : 1,
                        "TEXCOORD_0" : 2
                    },
                    "indices" : 3,
                    "material" : 0
                }
            ]
        }
    ],
    "textures" : [
        {
            "source" : 0
        },
        {
            "source" : 1
        },
        {
            "source" : 2
        },
        {
            "source" : 3
        }
    ],
    "images" : [
        {
            "bufferView" : 4,
            "mimeType" : "image/png",
            "name" : "Image_0"
        },
        {
            "bufferView" : 5,
            "mimeType" : "image/png",
            "name" : "SpaceStations_Normal_sm"
        },
        {
            "bufferView" : 6,
            "mimeType" : "image/png",
            "name" : "SpaceStations_Red_sm"
        },
        {
            "bufferView" : 7,
            "mimeType" : "image/png",
            "name" : "SpaceStations_Roughness_sm"
        }
    ],
    "accessors" : [
        {
            "bufferView" : 0,
            "componentType" : 5126,
            "count" : 12443,
            "max" : [
                45.55571365356445,
                45.55604553222656,
                146.56761169433594
            ],
            "min" : [
                -45.55571746826172,
                -45.5560417175293,
                -66.22914123535156
            ],
            "type" : "VEC3"
        },
        {
            "bufferView" : 1,
            "componentType" : 5126,
            "count" : 12443,
            "type" : "VEC3"
        },
        {
            "bufferView" : 2,
            "componentType" : 5126,
            "count" : 12443,
            "type" : "VEC2"
        },
        {
            "bufferView" : 3,
            "componentType" : 5123,
            "count" : 15756,
            "type" : "SCALAR"
        }
    ],
    "bufferViews" : [
        {
            "buffer" : 0,
            "byteLength" : 149316,
            "byteOffset" : 0
        },
        {
            "buffer" : 0,
            "byteLength" : 149316,
            "byteOffset" : 149316
        },
        {
            "buffer" : 0,
            "byteLength" : 99544,
            "byteOffset" : 298632
        },
        {
            "buffer" : 0,
            "byteLength" : 31512,
            "byteOffset" : 398176
        },
        {
            "buffer" : 0,
            "byteLength" : 118860,
            "byteOffset" : 429688
        },
        {
            "buffer" : 0,
            "byteLength" : 766484,
            "byteOffset" : 548548
        },
        {
            "buffer" : 0,
            "byteLength" : 606741,
            "byteOffset" : 1315032
        },
        {
            "buffer" : 0,
            "byteLength" : 523897,
            "byteOffset" : 1921776
        }
    ],
    "buffers" : [
        {
            "byteLength" : 2445676,
            "uri" : "data:application/octet-stream;base64,"
        }
    ]
}
