{
    "asset" : {
        "generator" : "Khronos glTF Blender I/O v1.1.46",
        "version" : "2.0"
    },
    "scene" : 0,
    "scenes" : [
        {
            "name" : "Scene",
            "nodes" : [
                0
            ]
        }
    ],
    "nodes" : [
        {
            "mesh" : 0,
            "name" : "SpaceStation6",
            "rotation" : [
                0.7071068286895752,
                0,
                0,
                0.7071067094802856
            ]
        }
    ],
    "materials" : [
        {
            "doubleSided" : true,
            "emissiveFactor" : [
                1,
                1,
                1
            ],
            "emissiveTexture" : {
                "index" : 0,
                "texCoord" : 0
            },
            "name" : "SpaceStationRed",
            "normalTexture" : {
                "index" : 1,
                "texCoord" : 0
            },
            "pbrMetallicRoughness" : {
                "baseColorTexture" : {
                    "index" : 2,
                    "texCoord" : 0
                },
                "metallicRoughnessTexture" : {
                    "index" : 3,
                    "texCoord" : 0
                }
            }
        }
    ],
    "meshes" : [
        {
            "name" : "Mesh.055",
            "primitives" : [
                {
                    "attributes" : {
                        "POSITION" : 0,
                        "NORMAL" : 1,
                        "TEXCOORD_0" : 2
                    },
                    "indices" : 3,
                    "material" : 0
                }
            ]
        }
    ],
    "textures" : [
        {
            "source" : 0
        },
        {
            "source" : 1
        },
        {
            "source" : 2
        },
        {
            "source" : 3
        }
    ],
    "images" : [
        {
            "bufferView" : 4,
            "mimeType" : "image/png",
            "name" : "Image_0"
        },
        {
            "bufferView" : 5,
            "mimeType" : "image/png",
            "name" : "SpaceStations_Normal_sm"
        },
        {
            "bufferView" : 6,
            "mimeType" : "image/png",
            "name" : "SpaceStations_Black_sm"
        },
        {
            "bufferView" : 7,
            "mimeType" : "image/png",
            "name" : "SpaceStations_Metallic_sm"
        }
    ],
    "accessors" : [
        {
            "bufferView" : 0,
            "componentType" : 5126,
            "count" : 16716,
            "max" : [
                44.43623352050781,
                44.436222076416016,
                41.87992477416992
            ],
            "min" : [
                -44.43623352050781,
                -44.436363220214844,
                -59.32503890991211
            ],
            "type" : "VEC3"
        },
        {
            "bufferView" : 1,
            "componentType" : 5126,
            "count" : 16716,
            "type" : "VEC3"
        },
        {
            "bufferView" : 2,
            "componentType" : 5126,
            "count" : 16716,
            "type" : "VEC2"
        },
        {
            "bufferView" : 3,
            "componentType" : 5123,
            "count" : 21588,
            "type" : "SCALAR"
        }
    ],
    "bufferViews" : [
        {
            "buffer" : 0,
            "byteLength" : 200592,
            "byteOffset" : 0
        },
        {
            "buffer" : 0,
            "byteLength" : 200592,
            "byteOffset" : 200592
        },
        {
            "buffer" : 0,
            "byteLength" : 133728,
            "byteOffset" : 401184
        },
        {
            "buffer" : 0,
            "byteLength" : 43176,
            "byteOffset" : 534912
        },
        {
            "buffer" : 0,
            "byteLength" : 118860,
            "byteOffset" : 578088
        },
        {
            "buffer" : 0,
            "byteLength" : 766484,
            "byteOffset" : 696948
        },
        {
            "buffer" : 0,
            "byteLength" : 597557,
            "byteOffset" : 1463432
        },
        {
            "buffer" : 0,
            "byteLength" : 450788,
            "byteOffset" : 2060992
        }
    ],
    "buffers" : [
        {
            "byteLength" : 2511780,
            "uri" : "data:application/octet-stream;base64,"
        }
    ]
}
