{
    "asset" : {
        "generator" : "Khronos glTF Blender I/O v1.1.46",
        "version" : "2.0"
    },
    "scene" : 0,
    "scenes" : [
        {
            "name" : "Scene",
            "nodes" : [
                0
            ]
        }
    ],
    "nodes" : [
        {
            "mesh" : 0,
            "name" : "WarpGate21",
            "scale" : [
                0.009999999776482582,
                0.010000000707805157,
                0.010000000707805157
            ]
        }
    ],
    "materials" : [
        {
            "doubleSided" : true,
            "emissiveFactor" : [
                1,
                1,
                1
            ],
            "emissiveTexture" : {
                "index" : 0,
                "texCoord" : 0
            },
            "name" : "WarpGatePurple.002",
            "normalTexture" : {
                "index" : 1,
                "texCoord" : 0
            },
            "pbrMetallicRoughness" : {
                "baseColorTexture" : {
                    "index" : 2,
                    "texCoord" : 0
                },
                "metallicFactor" : 1,
                "roughnessFactor" : 1
            }
        }
    ],
    "meshes" : [
        {
            "name" : "Mesh.002",
            "primitives" : [
                {
                    "attributes" : {
                        "POSITION" : 0,
                        "NORMAL" : 1,
                        "TEXCOORD_0" : 2
                    },
                    "indices" : 3,
                    "material" : 0
                }
            ]
        }
    ],
    "textures" : [
        {
            "source" : 0
        },
        {
            "source" : 1
        },
        {
            "source" : 2
        }
    ],
    "images" : [
        {
            "bufferView" : 4,
            "mimeType" : "image/png",
            "name" : "Image_0"
        },
        {
            "bufferView" : 5,
            "mimeType" : "image/png",
            "name" : "WarpGates_Normal_sm"
        },
        {
            "bufferView" : 6,
            "mimeType" : "image/png",
            "name" : "Image_1"
        }
    ],
    "accessors" : [
        {
            "bufferView" : 0,
            "componentType" : 5126,
            "count" : 5848,
            "max" : [
                3976.4716796875,
                3936.53857421875,
                1653.8154296875
            ],
            "min" : [
                -3879.279052734375,
                -3918.20947265625,
                -2092.361328125
            ],
            "type" : "VEC3"
        },
        {
            "bufferView" : 1,
            "componentType" : 5126,
            "count" : 5848,
            "type" : "VEC3"
        },
        {
            "bufferView" : 2,
            "componentType" : 5126,
            "count" : 5848,
            "type" : "VEC2"
        },
        {
            "bufferView" : 3,
            "componentType" : 5123,
            "count" : 9324,
            "type" : "SCALAR"
        }
    ],
    "bufferViews" : [
        {
            "buffer" : 0,
            "byteLength" : 70176,
            "byteOffset" : 0
        },
        {
            "buffer" : 0,
            "byteLength" : 70176,
            "byteOffset" : 70176
        },
        {
            "buffer" : 0,
            "byteLength" : 46784,
            "byteOffset" : 140352
        },
        {
            "buffer" : 0,
            "byteLength" : 18648,
            "byteOffset" : 187136
        },
        {
            "buffer" : 0,
            "byteLength" : 155237,
            "byteOffset" : 205784
        },
        {
            "buffer" : 0,
            "byteLength" : 260899,
            "byteOffset" : 361024
        },
        {
            "buffer" : 0,
            "byteLength" : 231255,
            "byteOffset" : 621924
        }
    ],
    "buffers" : [
        {
            "byteLength" : 853180,
            "uri" : "data:application/octet-stream;base64,"
        }
    ]
}
