{
    "asset" : {
        "generator" : "Khronos glTF Blender I/O v1.1.46",
        "version" : "2.0"
    },
    "scene" : 0,
    "scenes" : [
        {
            "name" : "Scene",
            "nodes" : [
                0
            ]
        }
    ],
    "nodes" : [
        {
            "mesh" : 0,
            "name" : "WarpGate05",
            "scale" : [
                0.009999999776482582,
                0.010000000707805157,
                0.010000000707805157
            ]
        }
    ],
    "materials" : [
        {
            "doubleSided" : true,
            "emissiveFactor" : [
                1,
                1,
                1
            ],
            "emissiveTexture" : {
                "index" : 0,
                "texCoord" : 0
            },
            "name" : "WarpGateGrey.003",
            "normalTexture" : {
                "index" : 1,
                "texCoord" : 0
            },
            "pbrMetallicRoughness" : {
                "baseColorTexture" : {
                    "index" : 2,
                    "texCoord" : 0
                },
                "metallicFactor" : 1,
                "roughnessFactor" : 1
            }
        }
    ],
    "meshes" : [
        {
            "name" : "Mesh.004",
            "primitives" : [
                {
                    "attributes" : {
                        "POSITION" : 0,
                        "NORMAL" : 1,
                        "TEXCOORD_0" : 2
                    },
                    "indices" : 3,
                    "material" : 0
                }
            ]
        }
    ],
    "textures" : [
        {
            "source" : 0
        },
        {
            "source" : 1
        },
        {
            "source" : 2
        }
    ],
    "images" : [
        {
            "bufferView" : 4,
            "mimeType" : "image/png",
            "name" : "Image_0"
        },
        {
            "bufferView" : 5,
            "mimeType" : "image/png",
            "name" : "WarpGates_Normal_sm"
        },
        {
            "bufferView" : 6,
            "mimeType" : "image/png",
            "name" : "Image_1"
        }
    ],
    "accessors" : [
        {
            "bufferView" : 0,
            "componentType" : 5126,
            "count" : 10630,
            "max" : [
                2668.147705078125,
                2621.2314453125,
                3273.73095703125
            ],
            "min" : [
                -2661.624755859375,
                -2621.231201171875,
                -1464.63525390625
            ],
            "type" : "VEC3"
        },
        {
            "bufferView" : 1,
            "componentType" : 5126,
            "count" : 10630,
            "type" : "VEC3"
        },
        {
            "bufferView" : 2,
            "componentType" : 5126,
            "count" : 10630,
            "type" : "VEC2"
        },
        {
            "bufferView" : 3,
            "componentType" : 5123,
            "count" : 16788,
            "type" : "SCALAR"
        }
    ],
    "bufferViews" : [
        {
            "buffer" : 0,
            "byteLength" : 127560,
            "byteOffset" : 0
        },
        {
            "buffer" : 0,
            "byteLength" : 127560,
            "byteOffset" : 127560
        },
        {
            "buffer" : 0,
            "byteLength" : 85040,
            "byteOffset" : 255120
        },
        {
            "buffer" : 0,
            "byteLength" : 33576,
            "byteOffset" : 340160
        },
        {
            "buffer" : 0,
            "byteLength" : 170044,
            "byteOffset" : 373736
        },
        {
            "buffer" : 0,
            "byteLength" : 260899,
            "byteOffset" : 543780
        },
        {
            "buffer" : 0,
            "byteLength" : 245179,
            "byteOffset" : 804680
        }
    ],
    "buffers" : [
        {
            "byteLength" : 1049860,
            "uri" : "data:application/octet-stream;base64,"
        }
    ]
}
