{
    "asset" : {
        "generator" : "Khronos glTF Blender I/O v1.1.46",
        "version" : "2.0"
    },
    "scene" : 0,
    "scenes" : [
        {
            "name" : "Scene",
            "nodes" : [
                0
            ]
        }
    ],
    "nodes" : [
        {
            "mesh" : 0,
            "name" : "WarpGate25",
            "rotation" : [
                -0.7071065902709961,
                0,
                0,
                0.7071069478988647
            ],
            "scale" : [
                0.009999999776482582,
                0.010000000707805157,
                0.010000000707805157
            ]
        }
    ],
    "materials" : [
        {
            "doubleSided" : true,
            "emissiveFactor" : [
                1,
                1,
                1
            ],
            "emissiveTexture" : {
                "index" : 0,
                "texCoord" : 0
            },
            "name" : "WarpGateWhite",
            "normalTexture" : {
                "index" : 1,
                "texCoord" : 0
            },
            "pbrMetallicRoughness" : {
                "baseColorTexture" : {
                    "index" : 2,
                    "texCoord" : 0
                }
            }
        }
    ],
    "meshes" : [
        {
            "name" : "Mesh.170",
            "primitives" : [
                {
                    "attributes" : {
                        "POSITION" : 0,
                        "NORMAL" : 1,
                        "TEXCOORD_0" : 2
                    },
                    "indices" : 3,
                    "material" : 0
                }
            ]
        }
    ],
    "textures" : [
        {
            "source" : 0
        },
        {
            "source" : 1
        },
        {
            "source" : 2
        }
    ],
    "images" : [
        {
            "bufferView" : 4,
            "mimeType" : "image/png",
            "name" : "Image_0"
        },
        {
            "bufferView" : 5,
            "mimeType" : "image/png",
            "name" : "WarpGates_Normal_sm"
        },
        {
            "bufferView" : 6,
            "mimeType" : "image/png",
            "name" : "WarpGates_Black_sm"
        }
    ],
    "accessors" : [
        {
            "bufferView" : 0,
            "componentType" : 5126,
            "count" : 7854,
            "max" : [
                6564.59521484375,
                4175.39306640625,
                2949.0791015625
            ],
            "min" : [
                -6506.98779296875,
                -4536.60498046875,
                -2895.9296875
            ],
            "type" : "VEC3"
        },
        {
            "bufferView" : 1,
            "componentType" : 5126,
            "count" : 7854,
            "type" : "VEC3"
        },
        {
            "bufferView" : 2,
            "componentType" : 5126,
            "count" : 7854,
            "type" : "VEC2"
        },
        {
            "bufferView" : 3,
            "componentType" : 5123,
            "count" : 8232,
            "type" : "SCALAR"
        }
    ],
    "bufferViews" : [
        {
            "buffer" : 0,
            "byteLength" : 94248,
            "byteOffset" : 0
        },
        {
            "buffer" : 0,
            "byteLength" : 94248,
            "byteOffset" : 94248
        },
        {
            "buffer" : 0,
            "byteLength" : 62832,
            "byteOffset" : 188496
        },
        {
            "buffer" : 0,
            "byteLength" : 16464,
            "byteOffset" : 251328
        },
        {
            "buffer" : 0,
            "byteLength" : 155237,
            "byteOffset" : 267792
        },
        {
            "buffer" : 0,
            "byteLength" : 260899,
            "byteOffset" : 423032
        },
        {
            "buffer" : 0,
            "byteLength" : 189189,
            "byteOffset" : 683932
        }
    ],
    "buffers" : [
        {
            "byteLength" : 873124,
            "uri" : "data:application/octet-stream;base64,"
        }
    ]
}
