{
    "asset" : {
        "generator" : "Khronos glTF Blender I/O v1.1.46",
        "version" : "2.0"
    },
    "scene" : 0,
    "scenes" : [
        {
            "name" : "Scene",
            "nodes" : [
                0
            ]
        }
    ],
    "nodes" : [
        {
            "mesh" : 0,
            "name" : "WarpGate11",
            "scale" : [
                0.009999999776482582,
                0.010000000707805157,
                0.010000000707805157
            ]
        }
    ],
    "materials" : [
        {
            "doubleSided" : true,
            "emissiveFactor" : [
                1,
                1,
                1
            ],
            "emissiveTexture" : {
                "index" : 0,
                "texCoord" : 0
            },
            "name" : "WarpGateGrey.002",
            "normalTexture" : {
                "index" : 1,
                "texCoord" : 0
            },
            "pbrMetallicRoughness" : {
                "baseColorTexture" : {
                    "index" : 2,
                    "texCoord" : 0
                },
                "metallicFactor" : 1,
                "roughnessFactor" : 1
            }
        }
    ],
    "meshes" : [
        {
            "name" : "Mesh.003",
            "primitives" : [
                {
                    "attributes" : {
                        "POSITION" : 0,
                        "NORMAL" : 1,
                        "TEXCOORD_0" : 2
                    },
                    "indices" : 3,
                    "material" : 0
                }
            ]
        }
    ],
    "textures" : [
        {
            "source" : 0
        },
        {
            "source" : 1
        },
        {
            "source" : 2
        }
    ],
    "images" : [
        {
            "bufferView" : 4,
            "mimeType" : "image/png",
            "name" : "Image_0"
        },
        {
            "bufferView" : 5,
            "mimeType" : "image/png",
            "name" : "WarpGates_Normal_sm"
        },
        {
            "bufferView" : 6,
            "mimeType" : "image/png",
            "name" : "Image_1"
        }
    ],
    "accessors" : [
        {
            "bufferView" : 0,
            "componentType" : 5126,
            "count" : 15832,
            "max" : [
                2922.758544921875,
                2922.759521484375,
                4946.3583984375
            ],
            "min" : [
                -2922.75927734375,
                -2922.760498046875,
                -3227.79736328125
            ],
            "type" : "VEC3"
        },
        {
            "bufferView" : 1,
            "componentType" : 5126,
            "count" : 15832,
            "type" : "VEC3"
        },
        {
            "bufferView" : 2,
            "componentType" : 5126,
            "count" : 15832,
            "type" : "VEC2"
        },
        {
            "bufferView" : 3,
            "componentType" : 5123,
            "count" : 25776,
            "type" : "SCALAR"
        }
    ],
    "bufferViews" : [
        {
            "buffer" : 0,
            "byteLength" : 189984,
            "byteOffset" : 0
        },
        {
            "buffer" : 0,
            "byteLength" : 189984,
            "byteOffset" : 189984
        },
        {
            "buffer" : 0,
            "byteLength" : 126656,
            "byteOffset" : 379968
        },
        {
            "buffer" : 0,
            "byteLength" : 51552,
            "byteOffset" : 506624
        },
        {
            "buffer" : 0,
            "byteLength" : 170044,
            "byteOffset" : 558176
        },
        {
            "buffer" : 0,
            "byteLength" : 260899,
            "byteOffset" : 728220
        },
        {
            "buffer" : 0,
            "byteLength" : 236011,
            "byteOffset" : 989120
        }
    ],
    "buffers" : [
        {
            "byteLength" : 1225132,
            "uri" : "data:application/octet-stream;base64,"
        }
    ]
}
