{
    "asset" : {
        "generator" : "Khronos glTF Blender I/O v1.1.46",
        "version" : "2.0"
    },
    "scene" : 0,
    "scenes" : [
        {
            "name" : "Scene",
            "nodes" : [
                0
            ]
        }
    ],
    "nodes" : [
        {
            "mesh" : 0,
            "name" : "WarpGate29",
            "rotation" : [
                -0.7071065902709961,
                0,
                0,
                0.7071069478988647
            ],
            "scale" : [
                0.009999999776482582,
                0.010000000707805157,
                0.010000000707805157
            ]
        }
    ],
    "materials" : [
        {
            "doubleSided" : true,
            "emissiveFactor" : [
                1,
                1,
                1
            ],
            "emissiveTexture" : {
                "index" : 0,
                "texCoord" : 0
            },
            "name" : "WarpGateOrange",
            "normalTexture" : {
                "index" : 1,
                "texCoord" : 0
            },
            "pbrMetallicRoughness" : {
                "baseColorTexture" : {
                    "index" : 2,
                    "texCoord" : 0
                }
            }
        }
    ],
    "meshes" : [
        {
            "name" : "Mesh.174",
            "primitives" : [
                {
                    "attributes" : {
                        "POSITION" : 0,
                        "NORMAL" : 1,
                        "TEXCOORD_0" : 2
                    },
                    "indices" : 3,
                    "material" : 0
                }
            ]
        }
    ],
    "textures" : [
        {
            "source" : 0
        },
        {
            "source" : 1
        },
        {
            "source" : 2
        }
    ],
    "images" : [
        {
            "bufferView" : 4,
            "mimeType" : "image/png",
            "name" : "Image_0"
        },
        {
            "bufferView" : 5,
            "mimeType" : "image/png",
            "name" : "WarpGates_Normal_sm"
        },
        {
            "bufferView" : 6,
            "mimeType" : "image/png",
            "name" : "WarpGates_Black_sm"
        }
    ],
    "accessors" : [
        {
            "bufferView" : 0,
            "componentType" : 5126,
            "count" : 6360,
            "max" : [
                6047.064453125,
                9443.8388671875,
                2995.194580078125
            ],
            "min" : [
                -6051.5546875,
                -9225.3974609375,
                -2987.63720703125
            ],
            "type" : "VEC3"
        },
        {
            "bufferView" : 1,
            "componentType" : 5126,
            "count" : 6360,
            "type" : "VEC3"
        },
        {
            "bufferView" : 2,
            "componentType" : 5126,
            "count" : 6360,
            "type" : "VEC2"
        },
        {
            "bufferView" : 3,
            "componentType" : 5123,
            "count" : 6936,
            "type" : "SCALAR"
        }
    ],
    "bufferViews" : [
        {
            "buffer" : 0,
            "byteLength" : 76320,
            "byteOffset" : 0
        },
        {
            "buffer" : 0,
            "byteLength" : 76320,
            "byteOffset" : 76320
        },
        {
            "buffer" : 0,
            "byteLength" : 50880,
            "byteOffset" : 152640
        },
        {
            "buffer" : 0,
            "byteLength" : 13872,
            "byteOffset" : 203520
        },
        {
            "buffer" : 0,
            "byteLength" : 133635,
            "byteOffset" : 217392
        },
        {
            "buffer" : 0,
            "byteLength" : 260899,
            "byteOffset" : 351028
        },
        {
            "buffer" : 0,
            "byteLength" : 189189,
            "byteOffset" : 611928
        }
    ],
    "buffers" : [
        {
            "byteLength" : 801120,
            "uri" : "data:application/octet-stream;base64,"
        }
    ]
}
