{
    "asset" : {
        "generator" : "Khronos glTF Blender I/O v1.1.46",
        "version" : "2.0"
    },
    "scene" : 0,
    "scenes" : [
        {
            "name" : "Scene",
            "nodes" : [
                0
            ]
        }
    ],
    "nodes" : [
        {
            "mesh" : 0,
            "name" : "Planet_4",
            "rotation" : [
                -3.651776296464959e-06,
                0,
                -1,
                6.6764224357362956e-12
            ],
            "scale" : [
                1.1623287200927734,
                1.1623286008834839,
                1.1623286008834839
            ]
        }
    ],
    "materials" : [
        {
            "doubleSided" : true,
            "emissiveFactor" : [
                1,
                1,
                1
            ],
            "emissiveTexture" : {
                "index" : 0,
                "texCoord" : 0
            },
            "name" : "Planets_Material.004",
            "pbrMetallicRoughness" : {
                "baseColorTexture" : {
                    "index" : 1,
                    "texCoord" : 0
                },
                "metallicFactor" : 0,
                "roughnessFactor" : 0.5755286812782288
            }
        }
    ],
    "meshes" : [
        {
            "name" : "Cube.005",
            "primitives" : [
                {
                    "attributes" : {
                        "POSITION" : 0,
                        "NORMAL" : 1,
                        "TEXCOORD_0" : 2
                    },
                    "indices" : 3,
                    "material" : 0
                }
            ]
        }
    ],
    "textures" : [
        {
            "source" : 0
        },
        {
            "source" : 1
        }
    ],
    "images" : [
        {
            "bufferView" : 4,
            "mimeType" : "image/png",
            "name" : "Image_0"
        },
        {
            "bufferView" : 5,
            "mimeType" : "image/png",
            "name" : "Image_1"
        }
    ],
    "accessors" : [
        {
            "bufferView" : 0,
            "componentType" : 5126,
            "count" : 4596,
            "max" : [
                0.8679775595664978,
                0.9727177023887634,
                0.8595145344734192
            ],
            "min" : [
                -0.9285654425621033,
                -0.8060908913612366,
                -0.9324950575828552
            ],
            "type" : "VEC3"
        },
        {
            "bufferView" : 1,
            "componentType" : 5126,
            "count" : 4596,
            "type" : "VEC3"
        },
        {
            "bufferView" : 2,
            "componentType" : 5126,
            "count" : 4596,
            "type" : "VEC2"
        },
        {
            "bufferView" : 3,
            "componentType" : 5123,
            "count" : 4878,
            "type" : "SCALAR"
        }
    ],
    "bufferViews" : [
        {
            "buffer" : 0,
            "byteLength" : 55152,
            "byteOffset" : 0
        },
        {
            "buffer" : 0,
            "byteLength" : 55152,
            "byteOffset" : 55152
        },
        {
            "buffer" : 0,
            "byteLength" : 36768,
            "byteOffset" : 110304
        },
        {
            "buffer" : 0,
            "byteLength" : 9756,
            "byteOffset" : 147072
        },
        {
            "buffer" : 0,
            "byteLength" : 149,
            "byteOffset" : 156828
        },
        {
            "buffer" : 0,
            "byteLength" : 219,
            "byteOffset" : 156980
        }
    ],
    "buffers" : [
        {
            "byteLength" : 157200,
            "uri" : "data:application/octet-stream;base64,"
        }
    ]
}
