{
    "asset" : {
        "generator" : "Khronos glTF Blender I/O v1.1.46",
        "version" : "2.0"
    },
    "scene" : 0,
    "scenes" : [
        {
            "name" : "Scene",
            "nodes" : [
                0
            ]
        }
    ],
    "nodes" : [
        {
            "mesh" : 0,
            "name" : "Planet_2",
            "rotation" : [
                -3.651776296464959e-06,
                0,
                -1,
                6.9979768507755225e-12
            ],
            "scale" : [
                1.3930630683898926,
                1.393062949180603,
                1.393062949180603
            ]
        }
    ],
    "materials" : [
        {
            "doubleSided" : true,
            "emissiveFactor" : [
                1,
                1,
                1
            ],
            "emissiveTexture" : {
                "index" : 0,
                "texCoord" : 0
            },
            "name" : "Planets_Material.002",
            "pbrMetallicRoughness" : {
                "baseColorTexture" : {
                    "index" : 1,
                    "texCoord" : 0
                },
                "metallicFactor" : 0,
                "roughnessFactor" : 0.5755286812782288
            }
        }
    ],
    "meshes" : [
        {
            "name" : "Cube.003",
            "primitives" : [
                {
                    "attributes" : {
                        "POSITION" : 0,
                        "NORMAL" : 1,
                        "TEXCOORD_0" : 2
                    },
                    "indices" : 3,
                    "material" : 0
                }
            ]
        }
    ],
    "textures" : [
        {
            "source" : 0
        },
        {
            "source" : 1
        }
    ],
    "images" : [
        {
            "bufferView" : 4,
            "mimeType" : "image/png",
            "name" : "Image_0"
        },
        {
            "bufferView" : 5,
            "mimeType" : "image/png",
            "name" : "Image_1"
        }
    ],
    "accessors" : [
        {
            "bufferView" : 0,
            "componentType" : 5126,
            "count" : 7464,
            "max" : [
                0.8369653224945068,
                0.9003474712371826,
                0.8243226408958435
            ],
            "min" : [
                -0.8778358697891235,
                -0.8733327388763428,
                -0.9097338318824768
            ],
            "type" : "VEC3"
        },
        {
            "bufferView" : 1,
            "componentType" : 5126,
            "count" : 7464,
            "type" : "VEC3"
        },
        {
            "bufferView" : 2,
            "componentType" : 5126,
            "count" : 7464,
            "type" : "VEC2"
        },
        {
            "bufferView" : 3,
            "componentType" : 5123,
            "count" : 7464,
            "type" : "SCALAR"
        }
    ],
    "bufferViews" : [
        {
            "buffer" : 0,
            "byteLength" : 89568,
            "byteOffset" : 0
        },
        {
            "buffer" : 0,
            "byteLength" : 89568,
            "byteOffset" : 89568
        },
        {
            "buffer" : 0,
            "byteLength" : 59712,
            "byteOffset" : 179136
        },
        {
            "buffer" : 0,
            "byteLength" : 14928,
            "byteOffset" : 238848
        },
        {
            "buffer" : 0,
            "byteLength" : 149,
            "byteOffset" : 253776
        },
        {
            "buffer" : 0,
            "byteLength" : 219,
            "byteOffset" : 253928
        }
    ],
    "buffers" : [
        {
            "byteLength" : 254148,
            "uri" : "data:application/octet-stream;base64,"
        }
    ]
}
