{
    "asset" : {
        "generator" : "Khronos glTF Blender I/O v1.1.46",
        "version" : "2.0"
    },
    "scene" : 0,
    "scenes" : [
        {
            "name" : "Scene",
            "nodes" : [
                0
            ]
        }
    ],
    "nodes" : [
        {
            "mesh" : 0,
            "name" : "Planet_6",
            "rotation" : [
                -3.6517765238386346e-06,
                0,
                -1,
                7.158754491976005e-12
            ],
            "scale" : [
                0.9435951113700867,
                0.9435950517654419,
                0.9435950517654419
            ]
        }
    ],
    "materials" : [
        {
            "doubleSided" : true,
            "emissiveFactor" : [
                1,
                1,
                1
            ],
            "emissiveTexture" : {
                "index" : 0,
                "texCoord" : 0
            },
            "name" : "Planets_Material.006",
            "pbrMetallicRoughness" : {
                "baseColorTexture" : {
                    "index" : 1,
                    "texCoord" : 0
                },
                "metallicFactor" : 0,
                "roughnessFactor" : 0.5755286812782288
            }
        }
    ],
    "meshes" : [
        {
            "name" : "Cube.007",
            "primitives" : [
                {
                    "attributes" : {
                        "POSITION" : 0,
                        "NORMAL" : 1,
                        "TEXCOORD_0" : 2
                    },
                    "indices" : 3,
                    "material" : 0
                }
            ]
        }
    ],
    "textures" : [
        {
            "source" : 0
        },
        {
            "source" : 1
        }
    ],
    "images" : [
        {
            "bufferView" : 4,
            "mimeType" : "image/png",
            "name" : "Image_0"
        },
        {
            "bufferView" : 5,
            "mimeType" : "image/png",
            "name" : "Image_1"
        }
    ],
    "accessors" : [
        {
            "bufferView" : 0,
            "componentType" : 5126,
            "count" : 3874,
            "max" : [
                0.858144998550415,
                0.9507567286491394,
                0.8248087763786316
            ],
            "min" : [
                -0.9183275103569031,
                -0.7879467606544495,
                -0.9241049885749817
            ],
            "type" : "VEC3"
        },
        {
            "bufferView" : 1,
            "componentType" : 5126,
            "count" : 3874,
            "type" : "VEC3"
        },
        {
            "bufferView" : 2,
            "componentType" : 5126,
            "count" : 3874,
            "type" : "VEC2"
        },
        {
            "bufferView" : 3,
            "componentType" : 5123,
            "count" : 4152,
            "type" : "SCALAR"
        }
    ],
    "bufferViews" : [
        {
            "buffer" : 0,
            "byteLength" : 46488,
            "byteOffset" : 0
        },
        {
            "buffer" : 0,
            "byteLength" : 46488,
            "byteOffset" : 46488
        },
        {
            "buffer" : 0,
            "byteLength" : 30992,
            "byteOffset" : 92976
        },
        {
            "buffer" : 0,
            "byteLength" : 8304,
            "byteOffset" : 123968
        },
        {
            "buffer" : 0,
            "byteLength" : 149,
            "byteOffset" : 132272
        },
        {
            "buffer" : 0,
            "byteLength" : 219,
            "byteOffset" : 132424
        }
    ],
    "buffers" : [
        {
            "byteLength" : 132644,
            "uri" : "data:application/octet-stream;base64,"
        }
    ]
}
