{
    "asset" : {
        "generator" : "Khronos glTF Blender I/O v1.1.46",
        "version" : "2.0"
    },
    "scene" : 0,
    "scenes" : [
        {
            "name" : "Scene",
            "nodes" : [
                0
            ]
        }
    ],
    "nodes" : [
        {
            "mesh" : 0,
            "name" : "Planet_1",
            "rotation" : [
                -3.65177675121231e-06,
                0,
                -1,
                6.9979772844563914e-12
            ],
            "scale" : [
                1.2074230909347534,
                1.2074230909347534,
                1.2074230909347534
            ]
        }
    ],
    "materials" : [
        {
            "doubleSided" : true,
            "emissiveFactor" : [
                1,
                1,
                1
            ],
            "emissiveTexture" : {
                "index" : 0,
                "texCoord" : 0
            },
            "name" : "Planets_Material.001",
            "pbrMetallicRoughness" : {
                "baseColorTexture" : {
                    "index" : 1,
                    "texCoord" : 0
                },
                "metallicFactor" : 0,
                "roughnessFactor" : 0.5755286812782288
            }
        }
    ],
    "meshes" : [
        {
            "name" : "Cube.002",
            "primitives" : [
                {
                    "attributes" : {
                        "POSITION" : 0,
                        "NORMAL" : 1,
                        "TEXCOORD_0" : 2
                    },
                    "indices" : 3,
                    "material" : 0
                }
            ]
        }
    ],
    "textures" : [
        {
            "source" : 0
        },
        {
            "source" : 1
        }
    ],
    "images" : [
        {
            "bufferView" : 4,
            "mimeType" : "image/png",
            "name" : "Image_0"
        },
        {
            "bufferView" : 5,
            "mimeType" : "image/png",
            "name" : "Image_1"
        }
    ],
    "accessors" : [
        {
            "bufferView" : 0,
            "componentType" : 5126,
            "count" : 4002,
            "max" : [
                0.856850266456604,
                0.885711133480072,
                0.8572974801063538
            ],
            "min" : [
                -0.8761635422706604,
                -0.8812965154647827,
                -0.8568512797355652
            ],
            "type" : "VEC3"
        },
        {
            "bufferView" : 1,
            "componentType" : 5126,
            "count" : 4002,
            "type" : "VEC3"
        },
        {
            "bufferView" : 2,
            "componentType" : 5126,
            "count" : 4002,
            "type" : "VEC2"
        },
        {
            "bufferView" : 3,
            "componentType" : 5123,
            "count" : 4002,
            "type" : "SCALAR"
        }
    ],
    "bufferViews" : [
        {
            "buffer" : 0,
            "byteLength" : 48024,
            "byteOffset" : 0
        },
        {
            "buffer" : 0,
            "byteLength" : 48024,
            "byteOffset" : 48024
        },
        {
            "buffer" : 0,
            "byteLength" : 32016,
            "byteOffset" : 96048
        },
        {
            "buffer" : 0,
            "byteLength" : 8004,
            "byteOffset" : 128064
        },
        {
            "buffer" : 0,
            "byteLength" : 149,
            "byteOffset" : 136068
        },
        {
            "buffer" : 0,
            "byteLength" : 219,
            "byteOffset" : 136220
        }
    ],
    "buffers" : [
        {
            "byteLength" : 136440,
            "uri" : "data:application/octet-stream;base64,"
        }
    ]
}
