{
    "asset" : {
        "generator" : "Khronos glTF Blender I/O v1.1.46",
        "version" : "2.0"
    },
    "scene" : 0,
    "scenes" : [
        {
            "name" : "Scene",
            "nodes" : [
                0
            ]
        }
    ],
    "nodes" : [
        {
            "mesh" : 0,
            "name" : "Planet_8",
            "rotation" : [
                -3.65177675121231e-06,
                0,
                -1,
                7.158754491976005e-12
            ],
            "scale" : [
                1.2029869556427002,
                1.2029869556427002,
                1.2029869556427002
            ]
        }
    ],
    "materials" : [
        {
            "doubleSided" : true,
            "emissiveFactor" : [
                1,
                1,
                1
            ],
            "emissiveTexture" : {
                "index" : 0,
                "texCoord" : 0
            },
            "name" : "Planets_Material.008",
            "pbrMetallicRoughness" : {
                "baseColorTexture" : {
                    "index" : 1,
                    "texCoord" : 0
                },
                "metallicFactor" : 0,
                "roughnessFactor" : 0.5755286812782288
            }
        }
    ],
    "meshes" : [
        {
            "name" : "Cube.009",
            "primitives" : [
                {
                    "attributes" : {
                        "POSITION" : 0,
                        "NORMAL" : 1,
                        "TEXCOORD_0" : 2
                    },
                    "indices" : 3,
                    "material" : 0
                }
            ]
        }
    ],
    "textures" : [
        {
            "source" : 0
        },
        {
            "source" : 1
        }
    ],
    "images" : [
        {
            "bufferView" : 4,
            "mimeType" : "image/png",
            "name" : "Image_0"
        },
        {
            "bufferView" : 5,
            "mimeType" : "image/png",
            "name" : "Image_1"
        }
    ],
    "accessors" : [
        {
            "bufferView" : 0,
            "componentType" : 5126,
            "count" : 4268,
            "max" : [
                0.8519755005836487,
                0.9697812795639038,
                0.8550392985343933
            ],
            "min" : [
                -0.923723042011261,
                -0.8182265162467957,
                -0.9292236566543579
            ],
            "type" : "VEC3"
        },
        {
            "bufferView" : 1,
            "componentType" : 5126,
            "count" : 4268,
            "type" : "VEC3"
        },
        {
            "bufferView" : 2,
            "componentType" : 5126,
            "count" : 4268,
            "type" : "VEC2"
        },
        {
            "bufferView" : 3,
            "componentType" : 5123,
            "count" : 4548,
            "type" : "SCALAR"
        }
    ],
    "bufferViews" : [
        {
            "buffer" : 0,
            "byteLength" : 51216,
            "byteOffset" : 0
        },
        {
            "buffer" : 0,
            "byteLength" : 51216,
            "byteOffset" : 51216
        },
        {
            "buffer" : 0,
            "byteLength" : 34144,
            "byteOffset" : 102432
        },
        {
            "buffer" : 0,
            "byteLength" : 9096,
            "byteOffset" : 136576
        },
        {
            "buffer" : 0,
            "byteLength" : 149,
            "byteOffset" : 145672
        },
        {
            "buffer" : 0,
            "byteLength" : 219,
            "byteOffset" : 145824
        }
    ],
    "buffers" : [
        {
            "byteLength" : 146044,
            "uri" : "data:application/octet-stream;base64,"
        }
    ]
}
