{
    "asset" : {
        "generator" : "Khronos glTF Blender I/O v1.1.46",
        "version" : "2.0"
    },
    "scene" : 0,
    "scenes" : [
        {
            "name" : "Scene",
            "nodes" : [
                0
            ]
        }
    ],
    "nodes" : [
        {
            "mesh" : 0,
            "name" : "Planet_7",
            "rotation" : [
                -3.65177675121231e-06,
                0,
                -1,
                6.9979772844563914e-12
            ],
            "scale" : [
                1.2074230909347534,
                1.2074230909347534,
                1.2074230909347534
            ]
        }
    ],
    "materials" : [
        {
            "doubleSided" : true,
            "emissiveFactor" : [
                1,
                1,
                1
            ],
            "emissiveTexture" : {
                "index" : 0,
                "texCoord" : 0
            },
            "name" : "Planets_Material.007",
            "pbrMetallicRoughness" : {
                "baseColorTexture" : {
                    "index" : 1,
                    "texCoord" : 0
                },
                "metallicFactor" : 0,
                "roughnessFactor" : 0.5755286812782288
            }
        }
    ],
    "meshes" : [
        {
            "name" : "Cube.008",
            "primitives" : [
                {
                    "attributes" : {
                        "POSITION" : 0,
                        "NORMAL" : 1,
                        "TEXCOORD_0" : 2
                    },
                    "indices" : 3,
                    "material" : 0
                }
            ]
        }
    ],
    "textures" : [
        {
            "source" : 0
        },
        {
            "source" : 1
        }
    ],
    "images" : [
        {
            "bufferView" : 4,
            "mimeType" : "image/png",
            "name" : "Image_0"
        },
        {
            "bufferView" : 5,
            "mimeType" : "image/png",
            "name" : "Image_1"
        }
    ],
    "accessors" : [
        {
            "bufferView" : 0,
            "componentType" : 5126,
            "count" : 3552,
            "max" : [
                0.834432065486908,
                0.960137665271759,
                0.844343900680542
            ],
            "min" : [
                -0.9177173972129822,
                -0.8136687874794006,
                -0.8989574313163757
            ],
            "type" : "VEC3"
        },
        {
            "bufferView" : 1,
            "componentType" : 5126,
            "count" : 3552,
            "type" : "VEC3"
        },
        {
            "bufferView" : 2,
            "componentType" : 5126,
            "count" : 3552,
            "type" : "VEC2"
        },
        {
            "bufferView" : 3,
            "componentType" : 5123,
            "count" : 3834,
            "type" : "SCALAR"
        }
    ],
    "bufferViews" : [
        {
            "buffer" : 0,
            "byteLength" : 42624,
            "byteOffset" : 0
        },
        {
            "buffer" : 0,
            "byteLength" : 42624,
            "byteOffset" : 42624
        },
        {
            "buffer" : 0,
            "byteLength" : 28416,
            "byteOffset" : 85248
        },
        {
            "buffer" : 0,
            "byteLength" : 7668,
            "byteOffset" : 113664
        },
        {
            "buffer" : 0,
            "byteLength" : 149,
            "byteOffset" : 121332
        },
        {
            "buffer" : 0,
            "byteLength" : 219,
            "byteOffset" : 121484
        }
    ],
    "buffers" : [
        {
            "byteLength" : 121704,
            "uri" : "data:application/octet-stream;base64,"
        }
    ]
}
