{
    "asset" : {
        "generator" : "Khronos glTF Blender I/O v1.1.46",
        "version" : "2.0"
    },
    "scene" : 0,
    "scenes" : [
        {
            "name" : "Scene",
            "nodes" : [
                0
            ]
        }
    ],
    "nodes" : [
        {
            "mesh" : 0,
            "name" : "Moon_3",
            "rotation" : [
                -3.651776296464959e-06,
                0,
                -1,
                7.158753624614267e-12
            ],
            "scale" : [
                0.7768462300300598,
                0.7768462896347046,
                0.7768462896347046
            ]
        }
    ],
    "materials" : [
        {
            "doubleSided" : true,
            "emissiveFactor" : [
                1,
                1,
                1
            ],
            "emissiveTexture" : {
                "index" : 0,
                "texCoord" : 0
            },
            "name" : "Planets_Material.016",
            "pbrMetallicRoughness" : {
                "baseColorTexture" : {
                    "index" : 1,
                    "texCoord" : 0
                },
                "metallicFactor" : 0,
                "roughnessFactor" : 0.5755286812782288
            }
        }
    ],
    "meshes" : [
        {
            "name" : "Cube.017",
            "primitives" : [
                {
                    "attributes" : {
                        "POSITION" : 0,
                        "NORMAL" : 1,
                        "TEXCOORD_0" : 2
                    },
                    "indices" : 3,
                    "material" : 0
                }
            ]
        }
    ],
    "textures" : [
        {
            "source" : 0
        },
        {
            "source" : 1
        }
    ],
    "images" : [
        {
            "bufferView" : 4,
            "mimeType" : "image/png",
            "name" : "Image_0"
        },
        {
            "bufferView" : 5,
            "mimeType" : "image/png",
            "name" : "Image_1"
        }
    ],
    "accessors" : [
        {
            "bufferView" : 0,
            "componentType" : 5126,
            "count" : 822,
            "max" : [
                0.8244581818580627,
                0.9190074801445007,
                0.8085989952087402
            ],
            "min" : [
                -0.8801491856575012,
                -0.7748066186904907,
                -0.8860818147659302
            ],
            "type" : "VEC3"
        },
        {
            "bufferView" : 1,
            "componentType" : 5126,
            "count" : 822,
            "type" : "VEC3"
        },
        {
            "bufferView" : 2,
            "componentType" : 5126,
            "count" : 822,
            "type" : "VEC2"
        },
        {
            "bufferView" : 3,
            "componentType" : 5123,
            "count" : 834,
            "type" : "SCALAR"
        }
    ],
    "bufferViews" : [
        {
            "buffer" : 0,
            "byteLength" : 9864,
            "byteOffset" : 0
        },
        {
            "buffer" : 0,
            "byteLength" : 9864,
            "byteOffset" : 9864
        },
        {
            "buffer" : 0,
            "byteLength" : 6576,
            "byteOffset" : 19728
        },
        {
            "buffer" : 0,
            "byteLength" : 1668,
            "byteOffset" : 26304
        },
        {
            "buffer" : 0,
            "byteLength" : 149,
            "byteOffset" : 27972
        },
        {
            "buffer" : 0,
            "byteLength" : 219,
            "byteOffset" : 28124
        }
    ],
    "buffers" : [
        {
            "byteLength" : 28344,
            "uri" : "data:application/octet-stream;base64,"
        }
    ]
}
