{
    "asset" : {
        "generator" : "Khronos glTF Blender I/O v1.1.46",
        "version" : "2.0"
    },
    "scene" : 0,
    "scenes" : [
        {
            "name" : "Scene",
            "nodes" : [
                0
            ]
        }
    ],
    "nodes" : [
        {
            "mesh" : 0,
            "name" : "Planet_9",
            "rotation" : [
                -3.65177675121231e-06,
                0,
                -1,
                6.9979772844563914e-12
            ],
            "scale" : [
                1.2074230909347534,
                1.2074230909347534,
                1.2074230909347534
            ]
        }
    ],
    "materials" : [
        {
            "doubleSided" : true,
            "emissiveFactor" : [
                1,
                1,
                1
            ],
            "emissiveTexture" : {
                "index" : 0,
                "texCoord" : 0
            },
            "name" : "Planets_Material.009",
            "pbrMetallicRoughness" : {
                "baseColorTexture" : {
                    "index" : 1,
                    "texCoord" : 0
                },
                "metallicFactor" : 0,
                "roughnessFactor" : 0.5755286812782288
            }
        }
    ],
    "meshes" : [
        {
            "name" : "Cube.010",
            "primitives" : [
                {
                    "attributes" : {
                        "POSITION" : 0,
                        "NORMAL" : 1,
                        "TEXCOORD_0" : 2
                    },
                    "indices" : 3,
                    "material" : 0
                }
            ]
        }
    ],
    "textures" : [
        {
            "source" : 0
        },
        {
            "source" : 1
        }
    ],
    "images" : [
        {
            "bufferView" : 4,
            "mimeType" : "image/png",
            "name" : "Image_0"
        },
        {
            "bufferView" : 5,
            "mimeType" : "image/png",
            "name" : "Image_1"
        }
    ],
    "accessors" : [
        {
            "bufferView" : 0,
            "componentType" : 5126,
            "count" : 7458,
            "max" : [
                0.8869034051895142,
                0.9976048469543457,
                0.84303879737854
            ],
            "min" : [
                -0.8971682786941528,
                -0.8379870653152466,
                -0.9293587803840637
            ],
            "type" : "VEC3"
        },
        {
            "bufferView" : 1,
            "componentType" : 5126,
            "count" : 7458,
            "type" : "VEC3"
        },
        {
            "bufferView" : 2,
            "componentType" : 5126,
            "count" : 7458,
            "type" : "VEC2"
        },
        {
            "bufferView" : 3,
            "componentType" : 5123,
            "count" : 7458,
            "type" : "SCALAR"
        }
    ],
    "bufferViews" : [
        {
            "buffer" : 0,
            "byteLength" : 89496,
            "byteOffset" : 0
        },
        {
            "buffer" : 0,
            "byteLength" : 89496,
            "byteOffset" : 89496
        },
        {
            "buffer" : 0,
            "byteLength" : 59664,
            "byteOffset" : 178992
        },
        {
            "buffer" : 0,
            "byteLength" : 14916,
            "byteOffset" : 238656
        },
        {
            "buffer" : 0,
            "byteLength" : 149,
            "byteOffset" : 253572
        },
        {
            "buffer" : 0,
            "byteLength" : 219,
            "byteOffset" : 253724
        }
    ],
    "buffers" : [
        {
            "byteLength" : 253944,
            "uri" : "data:application/octet-stream;base64,"
        }
    ]
}
