{
    "asset" : {
        "generator" : "Khronos glTF Blender I/O v1.1.46",
        "version" : "2.0"
    },
    "scene" : 0,
    "scenes" : [
        {
            "name" : "Scene",
            "nodes" : [
                0
            ]
        }
    ],
    "nodes" : [
        {
            "mesh" : 0,
            "name" : "Planet_5",
            "rotation" : [
                -3.65177675121231e-06,
                0,
                -1,
                6.9979772844563914e-12
            ],
            "scale" : [
                1.1760839223861694,
                1.1760838031768799,
                1.1760838031768799
            ]
        }
    ],
    "materials" : [
        {
            "doubleSided" : true,
            "emissiveFactor" : [
                1,
                1,
                1
            ],
            "emissiveTexture" : {
                "index" : 0,
                "texCoord" : 0
            },
            "name" : "Planets_Material.005",
            "pbrMetallicRoughness" : {
                "baseColorTexture" : {
                    "index" : 1,
                    "texCoord" : 0
                },
                "metallicFactor" : 0,
                "roughnessFactor" : 0.5755286812782288
            }
        }
    ],
    "meshes" : [
        {
            "name" : "Cube.006",
            "primitives" : [
                {
                    "attributes" : {
                        "POSITION" : 0,
                        "NORMAL" : 1,
                        "TEXCOORD_0" : 2
                    },
                    "indices" : 3,
                    "material" : 0
                }
            ]
        }
    ],
    "textures" : [
        {
            "source" : 0
        },
        {
            "source" : 1
        }
    ],
    "images" : [
        {
            "bufferView" : 4,
            "mimeType" : "image/png",
            "name" : "Image_0"
        },
        {
            "bufferView" : 5,
            "mimeType" : "image/png",
            "name" : "Image_1"
        }
    ],
    "accessors" : [
        {
            "bufferView" : 0,
            "componentType" : 5126,
            "count" : 3788,
            "max" : [
                0.8344319462776184,
                0.939437210559845,
                0.824808657169342
            ],
            "min" : [
                -0.8936948180198669,
                -0.7879466414451599,
                -0.8989573121070862
            ],
            "type" : "VEC3"
        },
        {
            "bufferView" : 1,
            "componentType" : 5126,
            "count" : 3788,
            "type" : "VEC3"
        },
        {
            "bufferView" : 2,
            "componentType" : 5126,
            "count" : 3788,
            "type" : "VEC2"
        },
        {
            "bufferView" : 3,
            "componentType" : 5123,
            "count" : 4068,
            "type" : "SCALAR"
        }
    ],
    "bufferViews" : [
        {
            "buffer" : 0,
            "byteLength" : 45456,
            "byteOffset" : 0
        },
        {
            "buffer" : 0,
            "byteLength" : 45456,
            "byteOffset" : 45456
        },
        {
            "buffer" : 0,
            "byteLength" : 30304,
            "byteOffset" : 90912
        },
        {
            "buffer" : 0,
            "byteLength" : 8136,
            "byteOffset" : 121216
        },
        {
            "buffer" : 0,
            "byteLength" : 149,
            "byteOffset" : 129352
        },
        {
            "buffer" : 0,
            "byteLength" : 219,
            "byteOffset" : 129504
        }
    ],
    "buffers" : [
        {
            "byteLength" : 129724,
            "uri" : "data:application/octet-stream;base64,"
        }
    ]
}
