{
    "asset" : {
        "generator" : "Khronos glTF Blender I/O v1.1.46",
        "version" : "2.0"
    },
    "scene" : 0,
    "scenes" : [
        {
            "name" : "Scene",
            "nodes" : [
                0
            ]
        }
    ],
    "nodes" : [
        {
            "mesh" : 0,
            "name" : "ring_asteroids",
            "rotation" : [
                -3.6517765238386346e-06,
                0,
                -1,
                6.83719920957504e-12
            ]
        }
    ],
    "materials" : [
        {
            "doubleSided" : true,
            "emissiveFactor" : [
                1,
                1,
                1
            ],
            "emissiveTexture" : {
                "index" : 0,
                "texCoord" : 0
            },
            "name" : "Planets_Material.017",
            "pbrMetallicRoughness" : {
                "baseColorTexture" : {
                    "index" : 1,
                    "texCoord" : 0
                },
                "metallicFactor" : 0,
                "roughnessFactor" : 0.5755286812782288
            }
        }
    ],
    "meshes" : [
        {
            "name" : "Circle",
            "primitives" : [
                {
                    "attributes" : {
                        "POSITION" : 0,
                        "NORMAL" : 1,
                        "TEXCOORD_0" : 2
                    },
                    "indices" : 3,
                    "material" : 0
                }
            ]
        }
    ],
    "textures" : [
        {
            "source" : 0
        },
        {
            "source" : 1
        }
    ],
    "images" : [
        {
            "bufferView" : 4,
            "mimeType" : "image/png",
            "name" : "Image_0"
        },
        {
            "bufferView" : 5,
            "mimeType" : "image/png",
            "name" : "Image_1"
        }
    ],
    "accessors" : [
        {
            "bufferView" : 0,
            "componentType" : 5126,
            "count" : 3792,
            "max" : [
                2.989366292953491,
                0.6342976689338684,
                3.0727765560150146
            ],
            "min" : [
                -2.7544760704040527,
                -0.5178532600402832,
                -3.0967230796813965
            ],
            "type" : "VEC3"
        },
        {
            "bufferView" : 1,
            "componentType" : 5126,
            "count" : 3792,
            "type" : "VEC3"
        },
        {
            "bufferView" : 2,
            "componentType" : 5126,
            "count" : 3792,
            "type" : "VEC2"
        },
        {
            "bufferView" : 3,
            "componentType" : 5123,
            "count" : 3792,
            "type" : "SCALAR"
        }
    ],
    "bufferViews" : [
        {
            "buffer" : 0,
            "byteLength" : 45504,
            "byteOffset" : 0
        },
        {
            "buffer" : 0,
            "byteLength" : 45504,
            "byteOffset" : 45504
        },
        {
            "buffer" : 0,
            "byteLength" : 30336,
            "byteOffset" : 91008
        },
        {
            "buffer" : 0,
            "byteLength" : 7584,
            "byteOffset" : 121344
        },
        {
            "buffer" : 0,
            "byteLength" : 149,
            "byteOffset" : 128928
        },
        {
            "buffer" : 0,
            "byteLength" : 219,
            "byteOffset" : 129080
        }
    ],
    "buffers" : [
        {
            "byteLength" : 129300,
            "uri" : "data:application/octet-stream;base64,"
        }
    ]
}
