{
    "asset" : {
        "generator" : "Khronos glTF Blender I/O v1.1.46",
        "version" : "2.0"
    },
    "scene" : 0,
    "scenes" : [
        {
            "name" : "Scene",
            "nodes" : [
                0
            ]
        }
    ],
    "nodes" : [
        {
            "mesh" : 0,
            "name" : "group_0.101",
            "rotation" : [
                0,
                0.7071067690849304,
                0,
                -0.7071067690849304
            ],
            "scale" : [
                0.05076797306537628,
                0.05076797306537628,
                0.05076797306537628
            ]
        }
    ],
    "materials" : [
        {
            "doubleSided" : true,
            "emissiveFactor" : [
                0,
                0,
                0
            ],
            "name" : "ColorPallet.001",
            "pbrMetallicRoughness" : {
                "baseColorTexture" : {
                    "index" : 0,
                    "texCoord" : 0
                },
                "metallicFactor" : 0,
                "roughnessFactor" : 0.5
            }
        }
    ],
    "meshes" : [
        {
            "name" : "ID485",
            "primitives" : [
                {
                    "attributes" : {
                        "POSITION" : 0,
                        "NORMAL" : 1,
                        "TEXCOORD_0" : 2
                    },
                    "indices" : 3,
                    "material" : 0
                }
            ]
        }
    ],
    "textures" : [
        {
            "source" : 0
        }
    ],
    "images" : [
        {
            "bufferView" : 4,
            "mimeType" : "image/png",
            "name" : "ColorPallet_1"
        }
    ],
    "accessors" : [
        {
            "bufferView" : 0,
            "componentType" : 5126,
            "count" : 8074,
            "max" : [
                432.53045654296875,
                132.88690185546875,
                189.57789611816406
            ],
            "min" : [
                -480.689453125,
                -148.66876220703125,
                -189.39120483398438
            ],
            "type" : "VEC3"
        },
        {
            "bufferView" : 1,
            "componentType" : 5126,
            "count" : 8074,
            "type" : "VEC3"
        },
        {
            "bufferView" : 2,
            "componentType" : 5126,
            "count" : 8074,
            "type" : "VEC2"
        },
        {
            "bufferView" : 3,
            "componentType" : 5123,
            "count" : 14823,
            "type" : "SCALAR"
        }
    ],
    "bufferViews" : [
        {
            "buffer" : 0,
            "byteLength" : 96888,
            "byteOffset" : 0
        },
        {
            "buffer" : 0,
            "byteLength" : 96888,
            "byteOffset" : 96888
        },
        {
            "buffer" : 0,
            "byteLength" : 64592,
            "byteOffset" : 193776
        },
        {
            "buffer" : 0,
            "byteLength" : 29646,
            "byteOffset" : 258368
        },
        {
            "buffer" : 0,
            "byteLength" : 4427,
            "byteOffset" : 288016
        }
    ],
    "buffers" : [
        {
            "byteLength" : 292444,
            "uri" : "data:application/octet-stream;base64,"
        }
    ]
}
