{
    "asset" : {
        "generator" : "Khronos glTF Blender I/O v1.1.46",
        "version" : "2.0"
    },
    "scene" : 0,
    "scenes" : [
        {
            "name" : "Scene",
            "nodes" : [
                0
            ]
        }
    ],
    "nodes" : [
        {
            "mesh" : 0,
            "name" : "Cube.003",
            "translation" : [
                -8,
                0,
                0
            ]
        }
    ],
    "materials" : [
        {
            "doubleSided" : true,
            "emissiveFactor" : [
                0,
                0,
                0
            ],
            "name" : "ColorPallet",
            "pbrMetallicRoughness" : {
                "baseColorTexture" : {
                    "index" : 0,
                    "texCoord" : 0
                },
                "metallicFactor" : 0,
                "roughnessFactor" : 0.30000001192092896
            }
        },
        {
            "doubleSided" : true,
            "emissiveFactor" : [
                0,
                0,
                0
            ],
            "name" : "Pallet_Glow.005",
            "pbrMetallicRoughness" : {
                "baseColorFactor" : [
                    0.2956928014755249,
                    0,
                    0,
                    1
                ],
                "metallicFactor" : 0,
                "roughnessFactor" : 0.690034806728363
            }
        }
    ],
    "meshes" : [
        {
            "name" : "Cube.005",
            "primitives" : [
                {
                    "attributes" : {
                        "POSITION" : 0,
                        "NORMAL" : 1,
                        "TEXCOORD_0" : 2,
                        "TEXCOORD_1" : 3,
                        "TEXCOORD_2" : 4,
                        "TEXCOORD_3" : 5,
                        "TEXCOORD_4" : 6,
                        "TEXCOORD_5" : 7,
                        "TEXCOORD_6" : 8,
                        "TEXCOORD_7" : 9
                    },
                    "indices" : 10,
                    "material" : 0
                },
                {
                    "attributes" : {
                        "POSITION" : 11,
                        "NORMAL" : 12,
                        "TEXCOORD_0" : 13,
                        "TEXCOORD_1" : 14,
                        "TEXCOORD_2" : 15,
                        "TEXCOORD_3" : 16,
                        "TEXCOORD_4" : 17,
                        "TEXCOORD_5" : 18,
                        "TEXCOORD_6" : 19,
                        "TEXCOORD_7" : 20
                    },
                    "indices" : 21,
                    "material" : 1
                }
            ]
        }
    ],
    "textures" : [
        {
            "source" : 0
        }
    ],
    "images" : [
        {
            "bufferView" : 11,
            "mimeType" : "image/png",
            "name" : "ColorPallet_1"
        }
    ],
    "accessors" : [
        {
            "bufferView" : 0,
            "componentType" : 5126,
            "count" : 3333,
            "max" : [
                69.56771850585938,
                4.385403633117676,
                5.502182483673096
            ],
            "min" : [
                -6.717252254486084,
                -4.385407447814941,
                -3.835758686065674
            ],
            "type" : "VEC3"
        },
        {
            "bufferView" : 1,
            "componentType" : 5126,
            "count" : 3333,
            "type" : "VEC3"
        },
        {
            "bufferView" : 2,
            "componentType" : 5126,
            "count" : 3333,
            "type" : "VEC2"
        },
        {
            "bufferView" : 3,
            "componentType" : 5126,
            "count" : 3333,
            "type" : "VEC2"
        },
        {
            "bufferView" : 4,
            "componentType" : 5126,
            "count" : 3333,
            "type" : "VEC2"
        },
        {
            "bufferView" : 5,
            "componentType" : 5126,
            "count" : 3333,
            "type" : "VEC2"
        },
        {
            "bufferView" : 6,
            "componentType" : 5126,
            "count" : 3333,
            "type" : "VEC2"
        },
        {
            "bufferView" : 7,
            "componentType" : 5126,
            "count" : 3333,
            "type" : "VEC2"
        },
        {
            "bufferView" : 8,
            "componentType" : 5126,
            "count" : 3333,
            "type" : "VEC2"
        },
        {
            "bufferView" : 9,
            "componentType" : 5126,
            "count" : 3333,
            "type" : "VEC2"
        },
        {
            "bufferView" : 10,
            "componentType" : 5123,
            "count" : 5478,
            "type" : "SCALAR"
        },
        {
            "bufferView" : 12,
            "componentType" : 5126,
            "count" : 180,
            "max" : [
                69.26103973388672,
                1.0538082122802734,
                3.5075674057006836
            ],
            "min" : [
                -6.615615367889404,
                -1.0657150745391846,
                -0.7900592088699341
            ],
            "type" : "VEC3"
        },
        {
            "bufferView" : 13,
            "componentType" : 5126,
            "count" : 180,
            "type" : "VEC3"
        },
        {
            "bufferView" : 14,
            "componentType" : 5126,
            "count" : 180,
            "type" : "VEC2"
        },
        {
            "bufferView" : 15,
            "componentType" : 5126,
            "count" : 180,
            "type" : "VEC2"
        },
        {
            "bufferView" : 16,
            "componentType" : 5126,
            "count" : 180,
            "type" : "VEC2"
        },
        {
            "bufferView" : 17,
            "componentType" : 5126,
            "count" : 180,
            "type" : "VEC2"
        },
        {
            "bufferView" : 18,
            "componentType" : 5126,
            "count" : 180,
            "type" : "VEC2"
        },
        {
            "bufferView" : 19,
            "componentType" : 5126,
            "count" : 180,
            "type" : "VEC2"
        },
        {
            "bufferView" : 20,
            "componentType" : 5126,
            "count" : 180,
            "type" : "VEC2"
        },
        {
            "bufferView" : 21,
            "componentType" : 5126,
            "count" : 180,
            "type" : "VEC2"
        },
        {
            "bufferView" : 22,
            "componentType" : 5123,
            "count" : 384,
            "type" : "SCALAR"
        }
    ],
    "bufferViews" : [
        {
            "buffer" : 0,
            "byteLength" : 39996,
            "byteOffset" : 0
        },
        {
            "buffer" : 0,
            "byteLength" : 39996,
            "byteOffset" : 39996
        },
        {
            "buffer" : 0,
            "byteLength" : 26664,
            "byteOffset" : 79992
        },
        {
            "buffer" : 0,
            "byteLength" : 26664,
            "byteOffset" : 106656
        },
        {
            "buffer" : 0,
            "byteLength" : 26664,
            "byteOffset" : 133320
        },
        {
            "buffer" : 0,
            "byteLength" : 26664,
            "byteOffset" : 159984
        },
        {
            "buffer" : 0,
            "byteLength" : 26664,
            "byteOffset" : 186648
        },
        {
            "buffer" : 0,
            "byteLength" : 26664,
            "byteOffset" : 213312
        },
        {
            "buffer" : 0,
            "byteLength" : 26664,
            "byteOffset" : 239976
        },
        {
            "buffer" : 0,
            "byteLength" : 26664,
            "byteOffset" : 266640
        },
        {
            "buffer" : 0,
            "byteLength" : 10956,
            "byteOffset" : 293304
        },
        {
            "buffer" : 0,
            "byteLength" : 4427,
            "byteOffset" : 304260
        },
        {
            "buffer" : 0,
            "byteLength" : 2160,
            "byteOffset" : 308688
        },
        {
            "buffer" : 0,
            "byteLength" : 2160,
            "byteOffset" : 310848
        },
        {
            "buffer" : 0,
            "byteLength" : 1440,
            "byteOffset" : 313008
        },
        {
            "buffer" : 0,
            "byteLength" : 1440,
            "byteOffset" : 314448
        },
        {
            "buffer" : 0,
            "byteLength" : 1440,
            "byteOffset" : 315888
        },
        {
            "buffer" : 0,
            "byteLength" : 1440,
            "byteOffset" : 317328
        },
        {
            "buffer" : 0,
            "byteLength" : 1440,
            "byteOffset" : 318768
        },
        {
            "buffer" : 0,
            "byteLength" : 1440,
            "byteOffset" : 320208
        },
        {
            "buffer" : 0,
            "byteLength" : 1440,
            "byteOffset" : 321648
        },
        {
            "buffer" : 0,
            "byteLength" : 1440,
            "byteOffset" : 323088
        },
        {
            "buffer" : 0,
            "byteLength" : 768,
            "byteOffset" : 324528
        }
    ],
    "buffers" : [
        {
            "byteLength" : 325296,
            "uri" : "data:application/octet-stream;base64,"
        }
    ]
}
