{
    "asset" : {
        "generator" : "Khronos glTF Blender I/O v1.1.46",
        "version" : "2.0"
    },
    "scene" : 0,
    "scenes" : [
        {
            "name" : "Scene",
            "nodes" : [
                0
            ]
        }
    ],
    "nodes" : [
        {
            "mesh" : 0,
            "name" : "10.002"
        }
    ],
    "materials" : [
        {
            "doubleSided" : true,
            "emissiveFactor" : [
                0,
                0,
                0
            ],
            "name" : "Material",
            "pbrMetallicRoughness" : {
                "baseColorTexture" : {
                    "index" : 0,
                    "texCoord" : 0
                },
                "metallicFactor" : 0,
                "roughnessFactor" : 0.800000011920929
            }
        }
    ],
    "meshes" : [
        {
            "name" : "10.002",
            "primitives" : [
                {
                    "attributes" : {
                        "POSITION" : 0,
                        "NORMAL" : 1,
                        "TEXCOORD_0" : 2
                    },
                    "indices" : 3,
                    "material" : 0
                }
            ]
        }
    ],
    "textures" : [
        {
            "source" : 0
        }
    ],
    "images" : [
        {
            "bufferView" : 4,
            "mimeType" : "image/png",
            "name" : "1"
        }
    ],
    "accessors" : [
        {
            "bufferView" : 0,
            "componentType" : 5126,
            "count" : 574,
            "max" : [
                2.9588510990142822,
                1.1443121433258057,
                5.654355525970459
            ],
            "min" : [
                -2.9588510990142822,
                -0.001937844674102962,
                -1.0651661157608032
            ],
            "type" : "VEC3"
        },
        {
            "bufferView" : 1,
            "componentType" : 5126,
            "count" : 574,
            "type" : "VEC3"
        },
        {
            "bufferView" : 2,
            "componentType" : 5126,
            "count" : 574,
            "type" : "VEC2"
        },
        {
            "bufferView" : 3,
            "componentType" : 5123,
            "count" : 888,
            "type" : "SCALAR"
        }
    ],
    "bufferViews" : [
        {
            "buffer" : 0,
            "byteLength" : 6888,
            "byteOffset" : 0
        },
        {
            "buffer" : 0,
            "byteLength" : 6888,
            "byteOffset" : 6888
        },
        {
            "buffer" : 0,
            "byteLength" : 4592,
            "byteOffset" : 13776
        },
        {
            "buffer" : 0,
            "byteLength" : 1776,
            "byteOffset" : 18368
        },
        {
            "buffer" : 0,
            "byteLength" : 2548405,
            "byteOffset" : 20144
        }
    ],
    "buffers" : [
        {
            "byteLength" : 2568552,
            "uri" : "data:application/octet-stream;base64,"
        }
    ]
}
