{
    "asset" : {
        "generator" : "Khronos glTF Blender I/O v1.1.46",
        "version" : "2.0"
    },
    "scene" : 0,
    "scenes" : [
        {
            "name" : "Scene",
            "nodes" : [
                0
            ]
        }
    ],
    "nodes" : [
        {
            "mesh" : 0,
            "name" : "5.001"
        }
    ],
    "materials" : [
        {
            "doubleSided" : true,
            "emissiveFactor" : [
                0,
                0,
                0
            ],
            "name" : "Material",
            "pbrMetallicRoughness" : {
                "baseColorTexture" : {
                    "index" : 0,
                    "texCoord" : 0
                },
                "metallicFactor" : 0,
                "roughnessFactor" : 0.800000011920929
            }
        }
    ],
    "meshes" : [
        {
            "name" : "5.001",
            "primitives" : [
                {
                    "attributes" : {
                        "POSITION" : 0,
                        "NORMAL" : 1,
                        "TEXCOORD_0" : 2
                    },
                    "indices" : 3,
                    "material" : 0
                }
            ]
        }
    ],
    "textures" : [
        {
            "source" : 0
        }
    ],
    "images" : [
        {
            "bufferView" : 4,
            "mimeType" : "image/png",
            "name" : "1"
        }
    ],
    "accessors" : [
        {
            "bufferView" : 0,
            "componentType" : 5126,
            "count" : 1220,
            "max" : [
                3.96880841255188,
                1.1051946878433228,
                4.835177421569824
            ],
            "min" : [
                -3.155484437942505,
                -0.003969296813011169,
                -3.3641488552093506
            ],
            "type" : "VEC3"
        },
        {
            "bufferView" : 1,
            "componentType" : 5126,
            "count" : 1220,
            "type" : "VEC3"
        },
        {
            "bufferView" : 2,
            "componentType" : 5126,
            "count" : 1220,
            "type" : "VEC2"
        },
        {
            "bufferView" : 3,
            "componentType" : 5123,
            "count" : 1758,
            "type" : "SCALAR"
        }
    ],
    "bufferViews" : [
        {
            "buffer" : 0,
            "byteLength" : 14640,
            "byteOffset" : 0
        },
        {
            "buffer" : 0,
            "byteLength" : 14640,
            "byteOffset" : 14640
        },
        {
            "buffer" : 0,
            "byteLength" : 9760,
            "byteOffset" : 29280
        },
        {
            "buffer" : 0,
            "byteLength" : 3516,
            "byteOffset" : 39040
        },
        {
            "buffer" : 0,
            "byteLength" : 2548405,
            "byteOffset" : 42556
        }
    ],
    "buffers" : [
        {
            "byteLength" : 2590964,
            "uri" : "data:application/octet-stream;base64,"
        }
    ]
}
