{
    "asset" : {
        "generator" : "Khronos glTF Blender I/O v1.1.46",
        "version" : "2.0"
    },
    "scene" : 0,
    "scenes" : [
        {
            "name" : "Scene",
            "nodes" : [
                0
            ]
        }
    ],
    "nodes" : [
        {
            "mesh" : 0,
            "name" : "Shipping Frigate",
            "rotation" : [
                0,
                0.7071067094802856,
                -0.7071068286895752,
                -3.0908616110991716e-08
            ],
            "translation" : [
                0,
                0,
                -19.70822525024414
            ]
        }
    ],
    "materials" : [
        {
            "doubleSided" : true,
            "emissiveFactor" : [
                0,
                0,
                0
            ],
            "name" : "LowPolyColours.001",
            "pbrMetallicRoughness" : {
                "baseColorTexture" : {
                    "index" : 0,
                    "texCoord" : 0
                },
                "metallicFactor" : 0.380952388048172,
                "roughnessFactor" : 0.8285714387893677
            }
        },
        {
            "doubleSided" : true,
            "emissiveFactor" : [
                1,
                1,
                1
            ],
            "emissiveTexture" : {
                "index" : 1,
                "texCoord" : 0
            },
            "name" : "LowPolyGlow.001",
            "pbrMetallicRoughness" : {
                "baseColorFactor" : [
                    1,
                    1,
                    1,
                    1
                ],
                "metallicFactor" : 1,
                "roughnessFactor" : 1
            }
        }
    ],
    "meshes" : [
        {
            "name" : "Cylinder",
            "primitives" : [
                {
                    "attributes" : {
                        "POSITION" : 0,
                        "NORMAL" : 1,
                        "TEXCOORD_0" : 2
                    },
                    "indices" : 3,
                    "material" : 0
                },
                {
                    "attributes" : {
                        "POSITION" : 4,
                        "NORMAL" : 5,
                        "TEXCOORD_0" : 6
                    },
                    "indices" : 7,
                    "material" : 1
                }
            ]
        }
    ],
    "textures" : [
        {
            "source" : 0
        },
        {
            "source" : 0
        }
    ],
    "images" : [
        {
            "bufferView" : 4,
            "mimeType" : "image/png",
            "name" : "Image_0"
        }
    ],
    "accessors" : [
        {
            "bufferView" : 0,
            "componentType" : 5126,
            "count" : 10204,
            "max" : [
                9.578027725219727,
                4.578612804412842,
                9.578025817871094
            ],
            "min" : [
                -9.578027725219727,
                -48.570228576660156,
                -9.57802963256836
            ],
            "type" : "VEC3"
        },
        {
            "bufferView" : 1,
            "componentType" : 5126,
            "count" : 10204,
            "type" : "VEC3"
        },
        {
            "bufferView" : 2,
            "componentType" : 5126,
            "count" : 10204,
            "type" : "VEC2"
        },
        {
            "bufferView" : 3,
            "componentType" : 5123,
            "count" : 10308,
            "type" : "SCALAR"
        },
        {
            "bufferView" : 5,
            "componentType" : 5126,
            "count" : 18,
            "max" : [
                3.313037872314453,
                -0.02796442247927189,
                3.313037872314453
            ],
            "min" : [
                -3.3130381107330322,
                -0.02796471305191517,
                -3.313037872314453
            ],
            "type" : "VEC3"
        },
        {
            "bufferView" : 6,
            "componentType" : 5126,
            "count" : 18,
            "type" : "VEC3"
        },
        {
            "bufferView" : 7,
            "componentType" : 5126,
            "count" : 18,
            "type" : "VEC2"
        },
        {
            "bufferView" : 8,
            "componentType" : 5123,
            "count" : 18,
            "type" : "SCALAR"
        }
    ],
    "bufferViews" : [
        {
            "buffer" : 0,
            "byteLength" : 122448,
            "byteOffset" : 0
        },
        {
            "buffer" : 0,
            "byteLength" : 122448,
            "byteOffset" : 122448
        },
        {
            "buffer" : 0,
            "byteLength" : 81632,
            "byteOffset" : 244896
        },
        {
            "buffer" : 0,
            "byteLength" : 20616,
            "byteOffset" : 326528
        },
        {
            "buffer" : 0,
            "byteLength" : 22955,
            "byteOffset" : 347144
        },
        {
            "buffer" : 0,
            "byteLength" : 216,
            "byteOffset" : 370100
        },
        {
            "buffer" : 0,
            "byteLength" : 216,
            "byteOffset" : 370316
        },
        {
            "buffer" : 0,
            "byteLength" : 144,
            "byteOffset" : 370532
        },
        {
            "buffer" : 0,
            "byteLength" : 36,
            "byteOffset" : 370676
        }
    ],
    "buffers" : [
        {
            "byteLength" : 370712,
            "uri" : "data:application/octet-stream;base64,"
        }
    ]
}
