{
    "asset" : {
        "generator" : "Khronos glTF Blender I/O v1.1.46",
        "version" : "2.0"
    },
    "scene" : 0,
    "scenes" : [
        {
            "name" : "Scene",
            "nodes" : [
                0
            ]
        }
    ],
    "nodes" : [
        {
            "mesh" : 0,
            "name" : "SmallFighter",
            "rotation" : [
                0,
                0.7071067094802856,
                -0.7071068286895752,
                -3.0908616110991716e-08
            ]
        }
    ],
    "materials" : [
        {
            "doubleSided" : true,
            "emissiveFactor" : [
                0,
                0,
                0
            ],
            "name" : "LowPolyColours.005",
            "pbrMetallicRoughness" : {
                "baseColorTexture" : {
                    "index" : 0,
                    "texCoord" : 0
                },
                "metallicFactor" : 0.380952388048172,
                "roughnessFactor" : 0.8285714387893677
            }
        },
        {
            "doubleSided" : true,
            "emissiveFactor" : [
                1,
                1,
                1
            ],
            "emissiveTexture" : {
                "index" : 1,
                "texCoord" : 0
            },
            "name" : "LowPolyGlow.005",
            "pbrMetallicRoughness" : {
                "baseColorFactor" : [
                    1,
                    1,
                    1,
                    1
                ],
                "metallicFactor" : 1,
                "roughnessFactor" : 1
            }
        }
    ],
    "meshes" : [
        {
            "name" : "Cube.005",
            "primitives" : [
                {
                    "attributes" : {
                        "POSITION" : 0,
                        "NORMAL" : 1,
                        "TEXCOORD_0" : 2
                    },
                    "indices" : 3,
                    "material" : 0
                },
                {
                    "attributes" : {
                        "POSITION" : 4,
                        "NORMAL" : 5,
                        "TEXCOORD_0" : 6
                    },
                    "indices" : 7,
                    "material" : 1
                }
            ]
        }
    ],
    "textures" : [
        {
            "source" : 0
        },
        {
            "source" : 0
        }
    ],
    "images" : [
        {
            "bufferView" : 4,
            "mimeType" : "image/png",
            "name" : "Image_0"
        }
    ],
    "accessors" : [
        {
            "bufferView" : 0,
            "componentType" : 5126,
            "count" : 1120,
            "max" : [
                2.536119222640991,
                2.197553873062134,
                0.5318648219108582
            ],
            "min" : [
                -2.536119222640991,
                -2.0172226428985596,
                -0.6325945258140564
            ],
            "type" : "VEC3"
        },
        {
            "bufferView" : 1,
            "componentType" : 5126,
            "count" : 1120,
            "type" : "VEC3"
        },
        {
            "bufferView" : 2,
            "componentType" : 5126,
            "count" : 1120,
            "type" : "VEC2"
        },
        {
            "bufferView" : 3,
            "componentType" : 5123,
            "count" : 1152,
            "type" : "SCALAR"
        },
        {
            "bufferView" : 5,
            "componentType" : 5126,
            "count" : 60,
            "max" : [
                0.6496310830116272,
                0.7599815130233765,
                0.3796873688697815
            ],
            "min" : [
                -0.6496310830116272,
                -1.6962867975234985,
                -0.23925167322158813
            ],
            "type" : "VEC3"
        },
        {
            "bufferView" : 6,
            "componentType" : 5126,
            "count" : 60,
            "type" : "VEC3"
        },
        {
            "bufferView" : 7,
            "componentType" : 5126,
            "count" : 60,
            "type" : "VEC2"
        },
        {
            "bufferView" : 8,
            "componentType" : 5123,
            "count" : 60,
            "type" : "SCALAR"
        }
    ],
    "bufferViews" : [
        {
            "buffer" : 0,
            "byteLength" : 13440,
            "byteOffset" : 0
        },
        {
            "buffer" : 0,
            "byteLength" : 13440,
            "byteOffset" : 13440
        },
        {
            "buffer" : 0,
            "byteLength" : 8960,
            "byteOffset" : 26880
        },
        {
            "buffer" : 0,
            "byteLength" : 2304,
            "byteOffset" : 35840
        },
        {
            "buffer" : 0,
            "byteLength" : 22955,
            "byteOffset" : 38144
        },
        {
            "buffer" : 0,
            "byteLength" : 720,
            "byteOffset" : 61100
        },
        {
            "buffer" : 0,
            "byteLength" : 720,
            "byteOffset" : 61820
        },
        {
            "buffer" : 0,
            "byteLength" : 480,
            "byteOffset" : 62540
        },
        {
            "buffer" : 0,
            "byteLength" : 120,
            "byteOffset" : 63020
        }
    ],
    "buffers" : [
        {
            "byteLength" : 63140,
            "uri" : "data:application/octet-stream;base64,"
        }
    ]
}
