{
    "asset" : {
        "generator" : "Khronos glTF Blender I/O v1.1.46",
        "version" : "2.0"
    },
    "scene" : 0,
    "scenes" : [
        {
            "name" : "Scene",
            "nodes" : [
                0
            ]
        }
    ],
    "nodes" : [
        {
            "mesh" : 0,
            "name" : "SmallFrigate",
            "rotation" : [
                0,
                0.7071067094802856,
                -0.7071068286895752,
                -3.0908616110991716e-08
            ]
        }
    ],
    "materials" : [
        {
            "doubleSided" : true,
            "emissiveFactor" : [
                0,
                0,
                0
            ],
            "name" : "LowPolyColours.004",
            "pbrMetallicRoughness" : {
                "baseColorTexture" : {
                    "index" : 0,
                    "texCoord" : 0
                },
                "metallicFactor" : 0.380952388048172,
                "roughnessFactor" : 0.8285714387893677
            }
        },
        {
            "doubleSided" : true,
            "emissiveFactor" : [
                1,
                1,
                1
            ],
            "emissiveTexture" : {
                "index" : 1,
                "texCoord" : 0
            },
            "name" : "LowPolyGlow.004",
            "pbrMetallicRoughness" : {
                "baseColorFactor" : [
                    1,
                    1,
                    1,
                    1
                ],
                "metallicFactor" : 1,
                "roughnessFactor" : 1
            }
        }
    ],
    "meshes" : [
        {
            "name" : "Cube.004",
            "primitives" : [
                {
                    "attributes" : {
                        "POSITION" : 0,
                        "NORMAL" : 1,
                        "TEXCOORD_0" : 2
                    },
                    "indices" : 3,
                    "material" : 0
                },
                {
                    "attributes" : {
                        "POSITION" : 4,
                        "NORMAL" : 5,
                        "TEXCOORD_0" : 6
                    },
                    "indices" : 7,
                    "material" : 1
                }
            ]
        }
    ],
    "textures" : [
        {
            "source" : 0
        },
        {
            "source" : 0
        }
    ],
    "images" : [
        {
            "bufferView" : 4,
            "mimeType" : "image/png",
            "name" : "Image_0"
        }
    ],
    "accessors" : [
        {
            "bufferView" : 0,
            "componentType" : 5126,
            "count" : 5928,
            "max" : [
                2.679668664932251,
                4.946314334869385,
                1.7809327840805054
            ],
            "min" : [
                -2.679668426513672,
                -4.462824821472168,
                -1.7809326648712158
            ],
            "type" : "VEC3"
        },
        {
            "bufferView" : 1,
            "componentType" : 5126,
            "count" : 5928,
            "type" : "VEC3"
        },
        {
            "bufferView" : 2,
            "componentType" : 5126,
            "count" : 5928,
            "type" : "VEC2"
        },
        {
            "bufferView" : 3,
            "componentType" : 5123,
            "count" : 6126,
            "type" : "SCALAR"
        },
        {
            "bufferView" : 5,
            "componentType" : 5126,
            "count" : 149,
            "max" : [
                2.126446008682251,
                4.250631332397461,
                1.2270476818084717
            ],
            "min" : [
                -2.12644624710083,
                -3.9074337482452393,
                -1.229707956314087
            ],
            "type" : "VEC3"
        },
        {
            "bufferView" : 6,
            "componentType" : 5126,
            "count" : 149,
            "type" : "VEC3"
        },
        {
            "bufferView" : 7,
            "componentType" : 5126,
            "count" : 149,
            "type" : "VEC2"
        },
        {
            "bufferView" : 8,
            "componentType" : 5123,
            "count" : 156,
            "type" : "SCALAR"
        }
    ],
    "bufferViews" : [
        {
            "buffer" : 0,
            "byteLength" : 71136,
            "byteOffset" : 0
        },
        {
            "buffer" : 0,
            "byteLength" : 71136,
            "byteOffset" : 71136
        },
        {
            "buffer" : 0,
            "byteLength" : 47424,
            "byteOffset" : 142272
        },
        {
            "buffer" : 0,
            "byteLength" : 12252,
            "byteOffset" : 189696
        },
        {
            "buffer" : 0,
            "byteLength" : 22955,
            "byteOffset" : 201948
        },
        {
            "buffer" : 0,
            "byteLength" : 1788,
            "byteOffset" : 224904
        },
        {
            "buffer" : 0,
            "byteLength" : 1788,
            "byteOffset" : 226692
        },
        {
            "buffer" : 0,
            "byteLength" : 1192,
            "byteOffset" : 228480
        },
        {
            "buffer" : 0,
            "byteLength" : 312,
            "byteOffset" : 229672
        }
    ],
    "buffers" : [
        {
            "byteLength" : 229984,
            "uri" : "data:application/octet-stream;base64,"
        }
    ]
}
