{
    "asset" : {
        "generator" : "Khronos glTF Blender I/O v1.1.46",
        "version" : "2.0"
    },
    "scene" : 0,
    "scenes" : [
        {
            "name" : "Scene",
            "nodes" : [
                0
            ]
        }
    ],
    "nodes" : [
        {
            "mesh" : 0,
            "name" : "Cube",
            "rotation" : [
                0,
                0,
                -1,
                -2.1855690590655286e-08
            ],
            "translation" : [
                0,
                0,
                -1.7104166746139526
            ]
        }
    ],
    "materials" : [
        {
            "doubleSided" : true,
            "emissiveFactor" : [
                0,
                0,
                0
            ],
            "name" : "LowPolyColours.006",
            "pbrMetallicRoughness" : {
                "baseColorTexture" : {
                    "index" : 0,
                    "texCoord" : 0
                },
                "metallicFactor" : 0.380952388048172,
                "roughnessFactor" : 0.8285714387893677
            }
        },
        {
            "doubleSided" : true,
            "emissiveFactor" : [
                1,
                1,
                1
            ],
            "emissiveTexture" : {
                "index" : 1,
                "texCoord" : 0
            },
            "name" : "LowPolyGlow.006",
            "pbrMetallicRoughness" : {
                "baseColorFactor" : [
                    1,
                    1,
                    1,
                    1
                ],
                "metallicFactor" : 1,
                "roughnessFactor" : 1
            }
        }
    ],
    "meshes" : [
        {
            "name" : "Cube.006",
            "primitives" : [
                {
                    "attributes" : {
                        "POSITION" : 0,
                        "NORMAL" : 1,
                        "TEXCOORD_0" : 2
                    },
                    "indices" : 3,
                    "material" : 0
                },
                {
                    "attributes" : {
                        "POSITION" : 4,
                        "NORMAL" : 5,
                        "TEXCOORD_0" : 6
                    },
                    "indices" : 7,
                    "material" : 1
                }
            ]
        }
    ],
    "textures" : [
        {
            "source" : 0
        },
        {
            "source" : 0
        }
    ],
    "images" : [
        {
            "bufferView" : 4,
            "mimeType" : "image/png",
            "name" : "Image_0"
        }
    ],
    "accessors" : [
        {
            "bufferView" : 0,
            "componentType" : 5126,
            "count" : 2596,
            "max" : [
                3.6302363872528076,
                4.222102642059326,
                5.542262554168701
            ],
            "min" : [
                -2.6504323482513428,
                -0.9962591528892517,
                -1.644694447517395
            ],
            "type" : "VEC3"
        },
        {
            "bufferView" : 1,
            "componentType" : 5126,
            "count" : 2596,
            "type" : "VEC3"
        },
        {
            "bufferView" : 2,
            "componentType" : 5126,
            "count" : 2596,
            "type" : "VEC2"
        },
        {
            "bufferView" : 3,
            "componentType" : 5123,
            "count" : 2646,
            "type" : "SCALAR"
        },
        {
            "bufferView" : 5,
            "componentType" : 5126,
            "count" : 100,
            "max" : [
                2.1227383613586426,
                0.4858538508415222,
                2.8240108489990234
            ],
            "min" : [
                -0.3293682038784027,
                -0.3293682038784027,
                -1.874091625213623
            ],
            "type" : "VEC3"
        },
        {
            "bufferView" : 6,
            "componentType" : 5126,
            "count" : 100,
            "type" : "VEC3"
        },
        {
            "bufferView" : 7,
            "componentType" : 5126,
            "count" : 100,
            "type" : "VEC2"
        },
        {
            "bufferView" : 8,
            "componentType" : 5123,
            "count" : 102,
            "type" : "SCALAR"
        }
    ],
    "bufferViews" : [
        {
            "buffer" : 0,
            "byteLength" : 31152,
            "byteOffset" : 0
        },
        {
            "buffer" : 0,
            "byteLength" : 31152,
            "byteOffset" : 31152
        },
        {
            "buffer" : 0,
            "byteLength" : 20768,
            "byteOffset" : 62304
        },
        {
            "buffer" : 0,
            "byteLength" : 5292,
            "byteOffset" : 83072
        },
        {
            "buffer" : 0,
            "byteLength" : 22955,
            "byteOffset" : 88364
        },
        {
            "buffer" : 0,
            "byteLength" : 1200,
            "byteOffset" : 111320
        },
        {
            "buffer" : 0,
            "byteLength" : 1200,
            "byteOffset" : 112520
        },
        {
            "buffer" : 0,
            "byteLength" : 800,
            "byteOffset" : 113720
        },
        {
            "buffer" : 0,
            "byteLength" : 204,
            "byteOffset" : 114520
        }
    ],
    "buffers" : [
        {
            "byteLength" : 114724,
            "uri" : "data:application/octet-stream;base64,"
        }
    ]
}
