{
    "asset" : {
        "generator" : "Khronos glTF Blender I/O v1.1.46",
        "version" : "2.0"
    },
    "scene" : 0,
    "scenes" : [
        {
            "name" : "Scene",
            "nodes" : [
                0
            ]
        }
    ],
    "nodes" : [
        {
            "mesh" : 0,
            "name" : "Cube",
            "rotation" : [
                0,
                0.7071067094802856,
                -0.7071068286895752,
                -3.0908616110991716e-08
            ],
            "translation" : [
                0,
                0,
                1.959028959274292
            ]
        }
    ],
    "materials" : [
        {
            "doubleSided" : true,
            "emissiveFactor" : [
                0,
                0,
                0
            ],
            "name" : "LowPolyColours.002",
            "pbrMetallicRoughness" : {
                "baseColorTexture" : {
                    "index" : 0,
                    "texCoord" : 0
                },
                "metallicFactor" : 0.380952388048172,
                "roughnessFactor" : 0.8285714387893677
            }
        },
        {
            "doubleSided" : true,
            "emissiveFactor" : [
                1,
                1,
                1
            ],
            "emissiveTexture" : {
                "index" : 1,
                "texCoord" : 0
            },
            "name" : "LowPolyGlow.002",
            "pbrMetallicRoughness" : {
                "baseColorFactor" : [
                    1,
                    1,
                    1,
                    1
                ],
                "metallicFactor" : 1,
                "roughnessFactor" : 1
            }
        }
    ],
    "meshes" : [
        {
            "name" : "Cube.002",
            "primitives" : [
                {
                    "attributes" : {
                        "POSITION" : 0,
                        "NORMAL" : 1,
                        "TEXCOORD_0" : 2
                    },
                    "indices" : 3,
                    "material" : 0
                },
                {
                    "attributes" : {
                        "POSITION" : 4,
                        "NORMAL" : 5,
                        "TEXCOORD_0" : 6
                    },
                    "indices" : 7,
                    "material" : 1
                }
            ]
        }
    ],
    "textures" : [
        {
            "source" : 0
        },
        {
            "source" : 0
        }
    ],
    "images" : [
        {
            "bufferView" : 4,
            "mimeType" : "image/png",
            "name" : "Image_0"
        }
    ],
    "accessors" : [
        {
            "bufferView" : 0,
            "componentType" : 5126,
            "count" : 3818,
            "max" : [
                3.8318099975585938,
                13.403241157531738,
                5.914847373962402
            ],
            "min" : [
                -5.140221118927002,
                -10.769181251525879,
                -4.952434062957764
            ],
            "type" : "VEC3"
        },
        {
            "bufferView" : 1,
            "componentType" : 5126,
            "count" : 3818,
            "type" : "VEC3"
        },
        {
            "bufferView" : 2,
            "componentType" : 5126,
            "count" : 3818,
            "type" : "VEC2"
        },
        {
            "bufferView" : 3,
            "componentType" : 5123,
            "count" : 4023,
            "type" : "SCALAR"
        },
        {
            "bufferView" : 5,
            "componentType" : 5126,
            "count" : 326,
            "max" : [
                2.3900392055511475,
                9.681718826293945,
                1.9012141227722168
            ],
            "min" : [
                -2.3900392055511475,
                -3.3063442707061768,
                -2.685997486114502
            ],
            "type" : "VEC3"
        },
        {
            "bufferView" : 6,
            "componentType" : 5126,
            "count" : 326,
            "type" : "VEC3"
        },
        {
            "bufferView" : 7,
            "componentType" : 5126,
            "count" : 326,
            "type" : "VEC2"
        },
        {
            "bufferView" : 8,
            "componentType" : 5123,
            "count" : 348,
            "type" : "SCALAR"
        }
    ],
    "bufferViews" : [
        {
            "buffer" : 0,
            "byteLength" : 45816,
            "byteOffset" : 0
        },
        {
            "buffer" : 0,
            "byteLength" : 45816,
            "byteOffset" : 45816
        },
        {
            "buffer" : 0,
            "byteLength" : 30544,
            "byteOffset" : 91632
        },
        {
            "buffer" : 0,
            "byteLength" : 8046,
            "byteOffset" : 122176
        },
        {
            "buffer" : 0,
            "byteLength" : 22955,
            "byteOffset" : 130224
        },
        {
            "buffer" : 0,
            "byteLength" : 3912,
            "byteOffset" : 153180
        },
        {
            "buffer" : 0,
            "byteLength" : 3912,
            "byteOffset" : 157092
        },
        {
            "buffer" : 0,
            "byteLength" : 2608,
            "byteOffset" : 161004
        },
        {
            "buffer" : 0,
            "byteLength" : 696,
            "byteOffset" : 163612
        }
    ],
    "buffers" : [
        {
            "byteLength" : 164308,
            "uri" : "data:application/octet-stream;base64,"
        }
    ]
}
