{
    "asset" : {
        "generator" : "Khronos glTF Blender I/O v1.3.48",
        "version" : "2.0"
    },
    "scene" : 0,
    "scenes" : [
        {
            "name" : "Scene",
            "nodes" : [
                0
            ]
        }
    ],
    "nodes" : [
        {
            "mesh" : 0,
            "name" : "Cube.002",
            "rotation" : [
                0,
                1,
                0,
                -4.371138828673793e-08
            ]
        }
    ],
    "materials" : [
        {
            "doubleSided" : true,
            "emissiveFactor" : [
                0,
                0,
                0
            ],
            "name" : "LowPolyColours",
            "pbrMetallicRoughness" : {
                "baseColorTexture" : {
                    "index" : 0,
                    "texCoord" : 0
                },
                "metallicFactor" : 0.380952388048172,
                "roughnessFactor" : 0.8285714387893677
            }
        },
        {
            "doubleSided" : true,
            "emissiveFactor" : [
                1,
                1,
                1
            ],
            "emissiveTexture" : {
                "index" : 1,
                "texCoord" : 0
            },
            "name" : "LowPolyGlow",
            "pbrMetallicRoughness" : {
                "baseColorFactor" : [
                    1,
                    1,
                    1,
                    1
                ],
                "metallicFactor" : 1,
                "roughnessFactor" : 1
            }
        }
    ],
    "meshes" : [
        {
            "name" : "Cube.003",
            "primitives" : [
                {
                    "attributes" : {
                        "POSITION" : 0,
                        "NORMAL" : 1,
                        "TEXCOORD_0" : 2
                    },
                    "indices" : 3,
                    "material" : 0
                },
                {
                    "attributes" : {
                        "POSITION" : 4,
                        "NORMAL" : 5,
                        "TEXCOORD_0" : 6
                    },
                    "indices" : 7,
                    "material" : 1
                }
            ]
        }
    ],
    "textures" : [
        {
            "source" : 0
        },
        {
            "source" : 0
        }
    ],
    "images" : [
        {
            "bufferView" : 4,
            "mimeType" : "image/jpeg",
            "name" : "ColourPalette2"
        }
    ],
    "accessors" : [
        {
            "bufferView" : 0,
            "componentType" : 5126,
            "count" : 3858,
            "max" : [
                4.370436191558838,
                1.772585153579712,
                4.799619674682617
            ],
            "min" : [
                -4.37043571472168,
                -2.058021068572998,
                -4.424433708190918
            ],
            "type" : "VEC3"
        },
        {
            "bufferView" : 1,
            "componentType" : 5126,
            "count" : 3858,
            "type" : "VEC3"
        },
        {
            "bufferView" : 2,
            "componentType" : 5126,
            "count" : 3858,
            "type" : "VEC2"
        },
        {
            "bufferView" : 3,
            "componentType" : 5123,
            "count" : 3876,
            "type" : "SCALAR"
        },
        {
            "bufferView" : 5,
            "componentType" : 5126,
            "count" : 222,
            "max" : [
                3.995702028274536,
                0.65714430809021,
                4.198300361633301
            ],
            "min" : [
                -3.9957046508789062,
                -1.3306463956832886,
                -4.306472301483154
            ],
            "type" : "VEC3"
        },
        {
            "bufferView" : 6,
            "componentType" : 5126,
            "count" : 222,
            "type" : "VEC3"
        },
        {
            "bufferView" : 7,
            "componentType" : 5126,
            "count" : 222,
            "type" : "VEC2"
        },
        {
            "bufferView" : 8,
            "componentType" : 5123,
            "count" : 222,
            "type" : "SCALAR"
        }
    ],
    "bufferViews" : [
        {
            "buffer" : 0,
            "byteLength" : 46296,
            "byteOffset" : 0
        },
        {
            "buffer" : 0,
            "byteLength" : 46296,
            "byteOffset" : 46296
        },
        {
            "buffer" : 0,
            "byteLength" : 30864,
            "byteOffset" : 92592
        },
        {
            "buffer" : 0,
            "byteLength" : 7752,
            "byteOffset" : 123456
        },
        {
            "buffer" : 0,
            "byteLength" : 59750,
            "byteOffset" : 131208
        },
        {
            "buffer" : 0,
            "byteLength" : 2664,
            "byteOffset" : 190960
        },
        {
            "buffer" : 0,
            "byteLength" : 2664,
            "byteOffset" : 193624
        },
        {
            "buffer" : 0,
            "byteLength" : 1776,
            "byteOffset" : 196288
        },
        {
            "buffer" : 0,
            "byteLength" : 444,
            "byteOffset" : 198064
        }
    ],
    "buffers" : [
        {
            "byteLength" : 198508,
            "uri" : "data:application/octet-stream;base64,"
        }
    ]
}
