{
    "asset" : {
        "generator" : "Khronos glTF Blender I/O v1.1.46",
        "version" : "2.0"
    },
    "scene" : 0,
    "scenes" : [
        {
            "name" : "Scene",
            "nodes" : [
                0
            ]
        }
    ],
    "nodes" : [
        {
            "mesh" : 0,
            "name" : "group_0.002",
            "rotation" : [
                -0.5000000596046448,
                0.49999991059303284,
                -0.4999999701976776,
                -0.5
            ],
            "scale" : [
                0.006191152147948742,
                0.0061911530792713165,
                0.0061911530792713165
            ]
        }
    ],
    "materials" : [
        {
            "doubleSided" : true,
            "emissiveFactor" : [
                0,
                0,
                0
            ],
            "name" : "Pallet.011",
            "pbrMetallicRoughness" : {
                "baseColorTexture" : {
                    "index" : 0,
                    "texCoord" : 0
                },
                "metallicFactor" : 0,
                "roughnessFactor" : 0.5
            }
        },
        {
            "doubleSided" : true,
            "emissiveFactor" : [
                0,
                0,
                0
            ],
            "name" : "Pallet_Glow.008",
            "pbrMetallicRoughness" : {
                "baseColorFactor" : [
                    0.800000011920929,
                    0.800000011920929,
                    0.800000011920929,
                    1
                ],
                "metallicFactor" : 0,
                "roughnessFactor" : 0.4000000059604645
            }
        }
    ],
    "meshes" : [
        {
            "name" : "ID85.001",
            "primitives" : [
                {
                    "attributes" : {
                        "POSITION" : 0,
                        "NORMAL" : 1,
                        "TEXCOORD_0" : 2,
                        "TEXCOORD_1" : 3,
                        "TEXCOORD_2" : 4,
                        "TEXCOORD_3" : 5,
                        "TEXCOORD_4" : 6,
                        "TEXCOORD_5" : 7,
                        "TEXCOORD_6" : 8,
                        "TEXCOORD_7" : 9
                    },
                    "indices" : 10,
                    "material" : 0
                },
                {
                    "attributes" : {
                        "POSITION" : 11,
                        "NORMAL" : 12,
                        "TEXCOORD_0" : 13,
                        "TEXCOORD_1" : 14,
                        "TEXCOORD_2" : 15,
                        "TEXCOORD_3" : 16,
                        "TEXCOORD_4" : 17,
                        "TEXCOORD_5" : 18,
                        "TEXCOORD_6" : 19,
                        "TEXCOORD_7" : 20
                    },
                    "indices" : 21,
                    "material" : 1
                }
            ]
        }
    ],
    "textures" : [
        {
            "source" : 0
        }
    ],
    "images" : [
        {
            "bufferView" : 11,
            "mimeType" : "image/png",
            "name" : "Image_0"
        }
    ],
    "accessors" : [
        {
            "bufferView" : 0,
            "componentType" : 5126,
            "count" : 2328,
            "max" : [
                341.50140380859375,
                84.71483612060547,
                54.532745361328125
            ],
            "min" : [
                -243.60235595703125,
                -147.53433227539062,
                -54.53272247314453
            ],
            "type" : "VEC3"
        },
        {
            "bufferView" : 1,
            "componentType" : 5126,
            "count" : 2328,
            "type" : "VEC3"
        },
        {
            "bufferView" : 2,
            "componentType" : 5126,
            "count" : 2328,
            "type" : "VEC2"
        },
        {
            "bufferView" : 3,
            "componentType" : 5126,
            "count" : 2328,
            "type" : "VEC2"
        },
        {
            "bufferView" : 4,
            "componentType" : 5126,
            "count" : 2328,
            "type" : "VEC2"
        },
        {
            "bufferView" : 5,
            "componentType" : 5126,
            "count" : 2328,
            "type" : "VEC2"
        },
        {
            "bufferView" : 6,
            "componentType" : 5126,
            "count" : 2328,
            "type" : "VEC2"
        },
        {
            "bufferView" : 7,
            "componentType" : 5126,
            "count" : 2328,
            "type" : "VEC2"
        },
        {
            "bufferView" : 8,
            "componentType" : 5126,
            "count" : 2328,
            "type" : "VEC2"
        },
        {
            "bufferView" : 9,
            "componentType" : 5126,
            "count" : 2328,
            "type" : "VEC2"
        },
        {
            "bufferView" : 10,
            "componentType" : 5123,
            "count" : 2403,
            "type" : "SCALAR"
        },
        {
            "bufferView" : 12,
            "componentType" : 5126,
            "count" : 68,
            "max" : [
                352.116943359375,
                17.716535568237305,
                41.46486282348633
            ],
            "min" : [
                -200.7873992919922,
                -136.0065460205078,
                -41.464839935302734
            ],
            "type" : "VEC3"
        },
        {
            "bufferView" : 13,
            "componentType" : 5126,
            "count" : 68,
            "type" : "VEC3"
        },
        {
            "bufferView" : 14,
            "componentType" : 5126,
            "count" : 68,
            "type" : "VEC2"
        },
        {
            "bufferView" : 15,
            "componentType" : 5126,
            "count" : 68,
            "type" : "VEC2"
        },
        {
            "bufferView" : 16,
            "componentType" : 5126,
            "count" : 68,
            "type" : "VEC2"
        },
        {
            "bufferView" : 17,
            "componentType" : 5126,
            "count" : 68,
            "type" : "VEC2"
        },
        {
            "bufferView" : 18,
            "componentType" : 5126,
            "count" : 68,
            "type" : "VEC2"
        },
        {
            "bufferView" : 19,
            "componentType" : 5126,
            "count" : 68,
            "type" : "VEC2"
        },
        {
            "bufferView" : 20,
            "componentType" : 5126,
            "count" : 68,
            "type" : "VEC2"
        },
        {
            "bufferView" : 21,
            "componentType" : 5126,
            "count" : 68,
            "type" : "VEC2"
        },
        {
            "bufferView" : 22,
            "componentType" : 5123,
            "count" : 72,
            "type" : "SCALAR"
        }
    ],
    "bufferViews" : [
        {
            "buffer" : 0,
            "byteLength" : 27936,
            "byteOffset" : 0
        },
        {
            "buffer" : 0,
            "byteLength" : 27936,
            "byteOffset" : 27936
        },
        {
            "buffer" : 0,
            "byteLength" : 18624,
            "byteOffset" : 55872
        },
        {
            "buffer" : 0,
            "byteLength" : 18624,
            "byteOffset" : 74496
        },
        {
            "buffer" : 0,
            "byteLength" : 18624,
            "byteOffset" : 93120
        },
        {
            "buffer" : 0,
            "byteLength" : 18624,
            "byteOffset" : 111744
        },
        {
            "buffer" : 0,
            "byteLength" : 18624,
            "byteOffset" : 130368
        },
        {
            "buffer" : 0,
            "byteLength" : 18624,
            "byteOffset" : 148992
        },
        {
            "buffer" : 0,
            "byteLength" : 18624,
            "byteOffset" : 167616
        },
        {
            "buffer" : 0,
            "byteLength" : 18624,
            "byteOffset" : 186240
        },
        {
            "buffer" : 0,
            "byteLength" : 4806,
            "byteOffset" : 204864
        },
        {
            "buffer" : 0,
            "byteLength" : 4427,
            "byteOffset" : 209672
        },
        {
            "buffer" : 0,
            "byteLength" : 816,
            "byteOffset" : 214100
        },
        {
            "buffer" : 0,
            "byteLength" : 816,
            "byteOffset" : 214916
        },
        {
            "buffer" : 0,
            "byteLength" : 544,
            "byteOffset" : 215732
        },
        {
            "buffer" : 0,
            "byteLength" : 544,
            "byteOffset" : 216276
        },
        {
            "buffer" : 0,
            "byteLength" : 544,
            "byteOffset" : 216820
        },
        {
            "buffer" : 0,
            "byteLength" : 544,
            "byteOffset" : 217364
        },
        {
            "buffer" : 0,
            "byteLength" : 544,
            "byteOffset" : 217908
        },
        {
            "buffer" : 0,
            "byteLength" : 544,
            "byteOffset" : 218452
        },
        {
            "buffer" : 0,
            "byteLength" : 544,
            "byteOffset" : 218996
        },
        {
            "buffer" : 0,
            "byteLength" : 544,
            "byteOffset" : 219540
        },
        {
            "buffer" : 0,
            "byteLength" : 144,
            "byteOffset" : 220084
        }
    ],
    "buffers" : [
        {
            "byteLength" : 220228,
            "uri" : "data:application/octet-stream;base64,"
        }
    ]
}
