{
    "asset" : {
        "generator" : "Khronos glTF Blender I/O v1.1.46",
        "version" : "2.0"
    },
    "scene" : 0,
    "scenes" : [
        {
            "name" : "Scene",
            "nodes" : [
                0
            ]
        }
    ],
    "nodes" : [
        {
            "mesh" : 0,
            "name" : "StationDebris09",
            "rotation" : [
                0.7071068286895752,
                0,
                0,
                0.7071067094802856
            ]
        }
    ],
    "materials" : [
        {
            "doubleSided" : true,
            "emissiveFactor" : [
                0,
                0,
                0
            ],
            "name" : "DebrisGrey",
            "normalTexture" : {
                "index" : 0,
                "texCoord" : 0
            },
            "pbrMetallicRoughness" : {
                "baseColorTexture" : {
                    "index" : 1,
                    "texCoord" : 0
                },
                "metallicRoughnessTexture" : {
                    "index" : 2,
                    "texCoord" : 0
                }
            }
        }
    ],
    "meshes" : [
        {
            "name" : "Mesh.297",
            "primitives" : [
                {
                    "attributes" : {
                        "POSITION" : 0,
                        "NORMAL" : 1,
                        "TEXCOORD_0" : 2
                    },
                    "indices" : 3,
                    "material" : 0
                }
            ]
        }
    ],
    "textures" : [
        {
            "source" : 0
        },
        {
            "source" : 1
        },
        {
            "source" : 2
        }
    ],
    "images" : [
        {
            "bufferView" : 4,
            "mimeType" : "image/png",
            "name" : "Debris_Normal_sm"
        },
        {
            "bufferView" : 5,
            "mimeType" : "image/png",
            "name" : "Debris_Dark_sm"
        },
        {
            "bufferView" : 6,
            "mimeType" : "image/png",
            "name" : "Debris_Roughness_sm"
        }
    ],
    "accessors" : [
        {
            "bufferView" : 0,
            "componentType" : 5126,
            "count" : 3014,
            "max" : [
                23.442365646362305,
                24.735626220703125,
                28.764738082885742
            ],
            "min" : [
                -23.087879180908203,
                -25.67817497253418,
                -26.484224319458008
            ],
            "type" : "VEC3"
        },
        {
            "bufferView" : 1,
            "componentType" : 5126,
            "count" : 3014,
            "type" : "VEC3"
        },
        {
            "bufferView" : 2,
            "componentType" : 5126,
            "count" : 3014,
            "type" : "VEC2"
        },
        {
            "bufferView" : 3,
            "componentType" : 5123,
            "count" : 7062,
            "type" : "SCALAR"
        }
    ],
    "bufferViews" : [
        {
            "buffer" : 0,
            "byteLength" : 36168,
            "byteOffset" : 0
        },
        {
            "buffer" : 0,
            "byteLength" : 36168,
            "byteOffset" : 36168
        },
        {
            "buffer" : 0,
            "byteLength" : 24112,
            "byteOffset" : 72336
        },
        {
            "buffer" : 0,
            "byteLength" : 14124,
            "byteOffset" : 96448
        },
        {
            "buffer" : 0,
            "byteLength" : 347664,
            "byteOffset" : 110572
        },
        {
            "buffer" : 0,
            "byteLength" : 221885,
            "byteOffset" : 458236
        },
        {
            "buffer" : 0,
            "byteLength" : 120678,
            "byteOffset" : 680124
        }
    ],
    "buffers" : [
        {
            "byteLength" : 800804,
            "uri" : "data:application/octet-stream;base64,"
        }
    ]
}
