{
    "asset" : {
        "generator" : "Khronos glTF Blender I/O v1.1.46",
        "version" : "2.0"
    },
    "scene" : 0,
    "scenes" : [
        {
            "name" : "Scene",
            "nodes" : [
                0
            ]
        }
    ],
    "nodes" : [
        {
            "mesh" : 0,
            "name" : "ShipDebris03",
            "rotation" : [
                0.7071068286895752,
                0,
                0,
                0.7071067094802856
            ]
        }
    ],
    "materials" : [
        {
            "doubleSided" : true,
            "emissiveFactor" : [
                0,
                0,
                0
            ],
            "name" : "DebrisViolet",
            "normalTexture" : {
                "index" : 0,
                "texCoord" : 0
            },
            "pbrMetallicRoughness" : {
                "baseColorTexture" : {
                    "index" : 1,
                    "texCoord" : 0
                },
                "metallicRoughnessTexture" : {
                    "index" : 2,
                    "texCoord" : 0
                }
            }
        }
    ],
    "meshes" : [
        {
            "name" : "Mesh.316",
            "primitives" : [
                {
                    "attributes" : {
                        "POSITION" : 0,
                        "NORMAL" : 1,
                        "TEXCOORD_0" : 2
                    },
                    "indices" : 3,
                    "material" : 0
                }
            ]
        }
    ],
    "textures" : [
        {
            "source" : 0
        },
        {
            "source" : 1
        },
        {
            "source" : 2
        }
    ],
    "images" : [
        {
            "bufferView" : 4,
            "mimeType" : "image/png",
            "name" : "Debris_Normal_sm"
        },
        {
            "bufferView" : 5,
            "mimeType" : "image/png",
            "name" : "Debris_Dark_sm"
        },
        {
            "bufferView" : 6,
            "mimeType" : "image/png",
            "name" : "Debris_Roughness_sm"
        }
    ],
    "accessors" : [
        {
            "bufferView" : 0,
            "componentType" : 5126,
            "count" : 894,
            "max" : [
                12.910170555114746,
                14.85694694519043,
                5.866299629211426
            ],
            "min" : [
                -14.887927055358887,
                -12.958293914794922,
                -5.425586223602295
            ],
            "type" : "VEC3"
        },
        {
            "bufferView" : 1,
            "componentType" : 5126,
            "count" : 894,
            "type" : "VEC3"
        },
        {
            "bufferView" : 2,
            "componentType" : 5126,
            "count" : 894,
            "type" : "VEC2"
        },
        {
            "bufferView" : 3,
            "componentType" : 5123,
            "count" : 1296,
            "type" : "SCALAR"
        }
    ],
    "bufferViews" : [
        {
            "buffer" : 0,
            "byteLength" : 10728,
            "byteOffset" : 0
        },
        {
            "buffer" : 0,
            "byteLength" : 10728,
            "byteOffset" : 10728
        },
        {
            "buffer" : 0,
            "byteLength" : 7152,
            "byteOffset" : 21456
        },
        {
            "buffer" : 0,
            "byteLength" : 2592,
            "byteOffset" : 28608
        },
        {
            "buffer" : 0,
            "byteLength" : 347664,
            "byteOffset" : 31200
        },
        {
            "buffer" : 0,
            "byteLength" : 221885,
            "byteOffset" : 378864
        },
        {
            "buffer" : 0,
            "byteLength" : 120678,
            "byteOffset" : 600752
        }
    ],
    "buffers" : [
        {
            "byteLength" : 721432,
            "uri" : "data:application/octet-stream;base64,"
        }
    ]
}
